<?xml version="1.0" encoding="UTF-8" standalone="no"?>
<!-- Created with Inkscape (http://www.inkscape.org/) -->

<svg
   xmlns:dc="http://purl.org/dc/elements/1.1/"
   xmlns:cc="http://creativecommons.org/ns#"
   xmlns:rdf="http://www.w3.org/1999/02/22-rdf-syntax-ns#"
   xmlns:svg="http://www.w3.org/2000/svg"
   xmlns="http://www.w3.org/2000/svg"
   xmlns:sodipodi="http://sodipodi.sourceforge.net/DTD/sodipodi-0.dtd"
   xmlns:inkscape="http://www.inkscape.org/namespaces/inkscape"
   width="282.22223mm"
   height="282.22223mm"
   viewBox="0 0 1000 1000"
   id="svg2"
   version="1.1"
   inkscape:version="0.91 r13725"
   sodipodi:docname="background.svg">
  <defs
     id="defs4">
    <radialGradient
       id="radialGradient3358"
       spreadMethod="pad"
       gradientTransform="matrix(473.87601,0,0,-473.87601,400,400)"
       gradientUnits="userSpaceOnUse"
       r="1"
       cy="0"
       cx="0"
       fy="0"
       fx="0">
      <stop
         id="stop3360"
         offset="0"
         style="stop-opacity:1;stop-color:#005e7a" />
      <stop
         id="stop3362"
         offset="0.03552173"
         style="stop-opacity:1;stop-color:#005e7a" />
      <stop
         id="stop3364"
         offset="1"
         style="stop-opacity:1;stop-color:#003749" />
    </radialGradient>
    <clipPath
       id="clipPath3372"
       clipPathUnits="userSpaceOnUse">
      <path
         inkscape:connector-curvature="0"
         id="path3374"
         d="M 0,800 800,800 800,0 0,0 0,800 Z" />
    </clipPath>
    <pattern
       id="pattern3376"
       height="374.588"
       width="374.588"
       y="0"
       x="0"
       patternUnits="userSpaceOnUse"
       patternTransform="translate(0,800)">
      <path
         id="path3378"
         style="fill:#aed4c4;fill-opacity:1;fill-rule:nonzero;stroke:none"
         d="m 7.815,367.505 -1.871,0 0,-5.508 1.871,0 0,5.508 z m 18.644,-10.249 14.874,0 c -0.966,4.594 -2.698,8.933 -5.054,12.873 -1.361,-1.657 -2.823,-3.229 -4.397,-4.689 l 1.768,-1.769 -3.355,-3.354 -2.076,2.076 c -0.58,-0.44 -1.158,-0.881 -1.76,-1.294 l 0,-3.843 z m -4.748,-4.746 0,5.744 c -3.438,-1.804 -7.109,-3.218 -10.981,-4.123 l -2.915,-0.678 0,3.796 -1.871,0 0,-4.739 -5.944,0 0,4.746 1.196,0 0,10.249 -1.196,0 0,4.748 1.196,0 0,2.335 4.748,0 0,-2.335 1.871,0 0,2.335 4.746,0 0,-2.335 1.157,0 0,2.335 4.749,0 0,-7.083 -5.906,0 0,-7.956 c 3.24,1.01 6.299,2.423 9.15,4.144 l 0,9.135 0,1.76 1.762,0 -0.369,-0.368 5.417,-5.419 c 1.806,1.662 3.466,3.473 4.961,5.418 -0.092,0.123 -0.179,0.248 -0.274,0.369 l 0.551,0 5.764,0 c -0.078,-0.122 -0.149,-0.246 -0.229,-0.368 3.705,-5.647 6.238,-12.102 7.216,-19.004 l 0.384,-2.706 -25.183,0 z" />
      <g
         id="g3380"
         transform="translate(0.0254,345.5181)">
        <path
           id="path3382"
           style="fill:#aed4c4;fill-opacity:1;fill-rule:nonzero;stroke:none"
           d="m 0,0 c -0.003,0.001 -0.021,-0.003 -0.025,-0.003 l 0,-0.631 c 0.044,0.111 0.073,0.185 0.073,0.185 8.75,-24.439 0.549,-24.216 -0.073,-24.165 l 0,-14.331 c 0.037,-10e-4 0.072,-0.012 0.107,-0.012 5.536,0 10.022,4.487 10.022,10.019 0,0.269 -0.015,0.598 -0.037,0.955 1.932,-0.281 3.966,-0.006 5.85,0.919 4.971,2.439 6.825,8.351 4.581,13.411 C 17.005,-5.771 0.711,0.207 0,0" />
      </g>
      <g
         id="g3384"
         transform="translate(24.4287,324.1709)">
        <path
           id="path3386"
           style="fill:#aed4c4;fill-opacity:1;fill-rule:nonzero;stroke:none"
           d="M 0,0 C 1.539,-8.708 3.808,-7.036 3.808,-7.036 6.318,-5.608 0,0 0,0 m 6.931,-6.559 c 0.076,-0.124 0.14,-0.235 0.189,-0.328 0.867,-1.615 0.371,-3.568 -1.106,-4.358 -1.478,-0.791 -3.377,-0.123 -4.244,1.49 -0.041,0.077 -0.091,0.177 -0.138,0.284 -0.473,-0.357 -1.062,-0.568 -1.707,-0.568 -1.708,0 -3.129,1.459 -3.321,3.257 -0.301,2.803 3.113,6.878 3.335,6.921 C 0.098,0.3 5.571,0.904 7.756,-0.803 9.179,-1.915 9.575,-3.951 8.629,-5.374 8.212,-6.002 7.603,-6.404 6.931,-6.559" />
      </g>
      <g
         id="g3388"
         transform="translate(49.666,319.4805)">
        <path
           id="path3390"
           style="fill:#aed4c4;fill-opacity:1;fill-rule:nonzero;stroke:none"
           d="M 0,0 C 9.906,16.476 -1.178,32.183 -16.238,30.164 -30.545,28.245 -30.064,14.476 -25.56,9.422 c 5.158,-5.777 14.805,-3.49 14.451,3.495 -0.427,8.35 -10.512,5.135 -10.512,5.135 0.111,3.548 5.542,5.995 11.196,4.767 7.647,-1.664 11.857,-16.958 -4.99,-29.373 -10.695,-7.882 -24.114,-9.383 -31.478,-9.549 0,0 -1.009,0.03 -2.735,-0.005 l -0.038,0 0,-6.462 0.038,0 c 0.138,0 0.271,0 0.416,0.001 0.15,0 0.285,10e-4 0.42,10e-4 1.12,0.012 2.471,0.055 3.967,0.139 -1.625,-1.513 -3.348,-3.534 -4.793,-6.203 -0.016,0.028 -0.033,0.053 -0.048,0.081 l 0,-10.546 c 0.014,-0.029 0.019,-0.045 0.048,-0.105 0.077,0.188 0.081,0.201 0.081,0.201 1.036,2.462 6.924,15 17.955,17.873 7.98,2.08 12.553,-0.913 12.304,-6.317 0,0 5.765,7.203 -0.571,10.54 2.941,1.296 5.801,2.865 8.425,4.81 0.059,0.043 0.11,0.088 0.168,0.131 3.135,1.924 12.067,9.115 14.239,5.91 0,0 -4.154,-3.769 -0.774,-7.426 3.19,-3.454 9.42,-2.161 10.528,3.821 C 13.182,-7.241 11.878,2.601 0,0" />
      </g>
      <path
         id="path3392"
         style="fill:#aed4c4;fill-opacity:1;fill-rule:nonzero;stroke:none"
         d="m 368.1,367.505 -1.874,0 0,-5.508 1.874,0 0,5.508 z m -20.518,-6.406 c -0.602,0.413 -1.179,0.854 -1.76,1.294 l -2.075,-2.076 -3.354,3.354 1.766,1.768 c -1.573,1.46 -3.036,3.032 -4.396,4.69 -2.357,-3.941 -4.088,-8.279 -5.054,-12.873 l 14.873,0 0,3.843 z m 25.266,6.406 0,-10.249 1.74,0 0,-4.746 -6.488,0 0,4.739 -1.874,0 0,-3.796 -2.912,0.678 c -3.874,0.905 -7.546,2.319 -10.984,4.124 l 0,-5.745 -25.184,0 0.386,2.706 c 0.978,6.902 3.511,13.357 7.214,19.004 -0.078,0.122 -0.151,0.246 -0.227,0.368 l 5.764,0 0.55,0 c -0.095,-0.121 -0.181,-0.246 -0.274,-0.369 1.495,-1.945 3.156,-3.757 4.962,-5.418 l 5.417,5.419 -0.369,0.368 1.761,0 0,-1.76 0,-9.135 c 2.852,-1.721 5.908,-3.134 9.147,-4.144 l 0,7.956 -5.9,0 0,7.083 4.748,0 0,-2.335 1.152,0 0,2.335 4.749,0 0,-2.335 1.874,0 0,2.335 4.748,0 0,-2.335 1.74,0 0,-4.748 -1.74,0 z" />
      <g
         id="g3394"
         transform="translate(353.5186,331.8652)">
        <path
           id="path3396"
           style="fill:#aed4c4;fill-opacity:1;fill-rule:nonzero;stroke:none"
           d="m 0,0 c -2.247,-5.06 -0.389,-10.972 4.579,-13.411 1.884,-0.925 3.918,-1.2 5.849,-0.919 -0.021,-0.358 -0.032,-0.686 -0.032,-0.955 0,-5.532 4.484,-10.019 10.019,-10.019 0.226,0 0.434,0.052 0.654,0.067 l 0,14.333 c -0.166,-0.02 -0.327,-0.049 -0.508,-0.054 0,0 -9.2,-1.219 -0.112,24.162 0,0 0.248,-0.613 0.62,-1.637 l 0,1.981 c -0.287,0.076 -0.508,0.123 -0.57,0.105 C 19.787,13.86 3.492,7.882 0,0" />
      </g>
      <g
         id="g3398"
         transform="translate(345.8057,317.1353)">
        <path
           id="path3400"
           style="fill:#aed4c4;fill-opacity:1;fill-rule:nonzero;stroke:none"
           d="M 0,0 C 0,0 2.265,-1.672 3.807,7.036 3.807,7.036 -2.511,1.428 0,0 m -3.314,0.149 c 0.048,0.092 0.115,0.204 0.191,0.328 -0.674,0.155 -1.281,0.557 -1.701,1.185 -0.945,1.423 -0.545,3.458 0.878,4.571 2.18,1.706 7.656,1.102 7.813,0.942 C 4.09,7.131 7.503,3.057 7.203,0.253 7.014,-1.544 5.591,-3.003 3.882,-3.003 3.235,-3.003 2.646,-2.792 2.178,-2.435 2.126,-2.542 2.079,-2.642 2.037,-2.72 1.172,-4.332 -0.729,-5 -2.206,-4.21 c -1.48,0.791 -1.975,2.744 -1.108,4.359" />
      </g>
      <g
         id="g3402"
         transform="translate(373.5859,296.9116)">
        <path
           id="path3404"
           style="fill:#aed4c4;fill-opacity:1;fill-rule:nonzero;stroke:none"
           d="m 0,0 c 0.147,-0.001 0.282,-0.001 0.418,-0.001 0.135,0 0.271,0 0.416,0.001 l 0.168,0 0,6.468 C 0.807,6.467 0.637,6.466 0.418,6.461 -1.309,6.496 -2.318,6.466 -2.318,6.466 -9.679,6.632 -23.1,8.133 -33.795,16.015 c -16.847,12.415 -12.638,27.709 -4.988,29.373 5.652,1.228 11.082,-1.219 11.193,-4.767 0,0 -10.085,3.215 -10.51,-5.135 -0.356,-6.986 9.292,-9.273 14.448,-3.495 4.506,5.053 4.987,18.823 -9.322,20.741 -15.059,2.019 -26.144,-13.687 -16.236,-30.163 -11.881,2.601 -13.183,-7.241 -12.738,-9.659 1.107,-5.982 7.337,-7.275 10.53,-3.822 3.376,3.658 -0.775,7.427 -0.775,7.427 2.174,3.208 11.119,-3.998 14.246,-5.914 0.055,-0.042 0.103,-0.085 0.161,-0.127 2.623,-1.945 5.481,-3.514 8.425,-4.81 -6.337,-3.337 -0.572,-10.54 -0.572,-10.54 -0.247,5.403 4.325,8.397 12.305,6.316 11.033,-2.872 16.919,-15.41 17.954,-17.873 0,0 0.005,-0.012 0.084,-0.2 0.095,0.202 0.083,0.2 0.083,0.2 0.111,0.263 0.288,0.659 0.509,1.125 l 0,10.262 C 0.801,-5.378 0.602,-5.71 0.41,-6.063 -1.035,-3.395 -2.758,-1.373 -4.384,0.14 -2.89,0.056 -1.538,0.013 -0.42,0.001 -0.284,0.001 -0.145,0 0,0" />
      </g>
      <g
         id="g3406"
         transform="translate(41.333,17.3306)">
        <path
           id="path3408"
           style="fill:#aed4c4;fill-opacity:1;fill-rule:nonzero;stroke:none"
           d="m 0,0 -14.874,0 0,-3.843 c 0.602,-0.412 1.18,-0.854 1.76,-1.293 l 2.076,2.076 3.355,-3.355 -1.768,-1.769 c 1.574,-1.459 3.036,-3.032 4.397,-4.689 C -2.698,-8.934 -0.966,-4.595 0,0 m -33.518,-4.741 -1.871,0 0,-5.507 1.871,0 0,5.507 z m 38.695,6.78 c -0.978,-6.903 -3.511,-13.357 -7.216,-19.003 0.08,-0.121 0.151,-0.246 0.227,-0.367 l -5.764,0 -0.547,0 c 0.093,0.121 0.181,0.247 0.272,0.369 -1.495,1.945 -3.155,3.755 -4.962,5.417 l -5.417,-5.417 0.368,-0.369 -1.76,0 0,1.76 0,9.134 c -2.851,1.721 -5.91,3.135 -9.15,4.145 l 0,-7.957 5.906,0 0,-7.082 -4.749,0 0,2.334 -1.157,0 0,-2.334 -4.746,0 0,2.334 -1.871,0 0,-2.334 -4.748,0 0,2.334 -1.196,0 0,4.748 1.196,0 0,10.249 -1.196,0 0,4.746 5.944,0 0,-4.741 1.871,0 0,3.797 2.914,-0.676 c 3.873,-0.904 7.544,-2.32 10.982,-4.123 l 0,5.743 25.183,0 -0.384,-2.707 z" />
      </g>
      <g
         id="g3410"
         transform="translate(20.5234,42.7212)">
        <path
           id="path3412"
           style="fill:#aed4c4;fill-opacity:1;fill-rule:nonzero;stroke:none"
           d="m 0,0 c 2.244,5.061 0.39,10.972 -4.581,13.411 -1.884,0.925 -3.918,1.201 -5.85,0.919 0.022,0.359 0.036,0.686 0.036,0.955 0,5.531 -4.485,10.02 -10.021,10.02 -0.035,0 -0.07,-0.012 -0.107,-0.012 l 0,-14.332 c 0.622,0.05 8.823,0.275 0.073,-24.165 0,0 -0.029,0.073 -0.073,0.184 l 0,-0.63 c 0.003,0 0.022,-0.006 0.025,-0.004 C -19.787,-13.859 -3.493,-7.881 0,0" />
      </g>
      <g
         id="g3414"
         transform="translate(28.2363,57.4502)">
        <path
           id="path3416"
           style="fill:#aed4c4;fill-opacity:1;fill-rule:nonzero;stroke:none"
           d="m 0,0 c 0,0 -2.268,1.672 -3.808,-7.035 0,0 6.319,5.608 3.808,7.035 M 3.313,-0.148 C 3.264,-0.241 3.199,-0.351 3.123,-0.476 3.795,-0.631 4.404,-1.032 4.821,-1.661 5.768,-3.083 5.371,-5.119 3.948,-6.231 1.764,-7.938 -3.71,-7.334 -3.869,-7.173 c -0.222,0.044 -3.636,4.119 -3.335,6.921 0.192,1.796 1.613,3.255 3.321,3.255 0.646,0 1.235,-0.208 1.707,-0.567 0.047,0.107 0.097,0.207 0.138,0.286 C -1.171,4.334 0.729,5.001 2.206,4.21 3.684,3.42 4.18,1.467 3.313,-0.148" />
      </g>
      <g
         id="g3418"
         transform="translate(62.4033,64.7646)">
        <path
           id="path3420"
           style="fill:#aed4c4;fill-opacity:1;fill-rule:nonzero;stroke:none"
           d="m 0,0 c -1.108,5.983 -7.338,7.274 -10.528,3.821 -3.38,-3.656 0.774,-7.426 0.774,-7.426 -2.173,-3.204 -11.095,3.98 -14.235,5.906 -0.061,0.046 -0.112,0.091 -0.172,0.136 -2.624,1.943 -5.485,3.515 -8.425,4.81 6.336,3.338 0.57,10.54 0.57,10.54 0.249,-5.404 -4.324,-8.398 -12.303,-6.317 -11.032,2.871 -16.919,15.411 -17.955,17.873 0,0 -0.004,0.011 -0.081,0.201 -0.03,-0.062 -0.035,-0.076 -0.048,-0.106 l 0,-10.548 c 0.014,0.029 0.032,0.053 0.048,0.082 1.445,-2.668 3.168,-4.689 4.793,-6.201 -1.498,0.083 -2.847,0.125 -3.967,0.139 -0.135,0 -0.271,10e-4 -0.42,10e-4 l -0.416,0 -0.038,0 0,-6.462 0.038,0 c 1.725,-0.034 2.735,-0.005 2.735,-0.005 7.363,-0.165 20.782,-1.667 31.478,-9.548 16.846,-12.415 12.636,-27.71 4.99,-29.375 -5.654,-1.227 -11.085,1.22 -11.196,4.768 0,0 10.085,-3.215 10.511,5.135 0.355,6.987 -9.293,9.273 -14.45,3.495 -4.504,-5.053 -4.985,-18.822 9.321,-20.741 15.061,-2.019 26.145,13.687 16.239,30.163 C -0.859,-12.26 0.444,-2.416 0,0" />
      </g>
      <path
         id="path3422"
         style="fill:#aed4c4;fill-opacity:1;fill-rule:nonzero;stroke:none"
         d="m 368.1,12.589 -1.874,0 0,-5.507 1.874,0 0,5.507 z m -20.518,4.742 -14.873,0 c 0.966,-4.595 2.697,-8.934 5.054,-12.873 1.36,1.659 2.823,3.23 4.399,4.689 l -1.769,1.769 3.354,3.354 2.075,-2.076 c 0.581,0.439 1.158,0.88 1.76,1.293 l 0,3.844 z m 25.266,0 0,-10.249 1.74,0 0,-4.749 -1.74,0 0,-2.333 -4.748,0 0,2.333 -1.874,0 0,-2.333 -4.749,0 0,2.333 -1.152,0 0,-2.333 -4.748,0 0,7.082 5.9,0 0,7.957 c -3.239,-1.01 -6.295,-2.424 -9.147,-4.145 l 0,-9.135 0,-1.759 -1.76,0 0.368,0.368 -5.417,5.419 C 343.716,4.124 342.054,2.314 340.559,0.368 340.652,0.247 340.738,0.121 340.832,0 l -0.548,0 -5.765,0 c 0.077,0.121 0.149,0.245 0.227,0.366 -3.703,5.646 -6.236,12.101 -7.214,19.004 l -0.386,2.706 25.184,0 0,-5.745 c 3.438,1.805 7.11,3.222 10.984,4.125 l 2.912,0.677 0,-3.798 1.874,0 0,4.741 6.488,0 0,-4.745 -1.74,0 z" />
      <g
         id="g3424"
         transform="translate(374.0176,29.0669)">
        <path
           id="path3426"
           style="fill:#aed4c4;fill-opacity:1;fill-rule:nonzero;stroke:none"
           d="m 0,0 c 0.062,-0.018 0.283,0.029 0.57,0.106 l 0,1.981 C 0.198,1.063 -0.05,0.45 -0.05,0.45 -9.138,25.832 0.062,24.612 0.062,24.612 0.243,24.608 0.404,24.579 0.57,24.559 l 0,14.334 c -0.22,0.015 -0.428,0.066 -0.654,0.066 -5.535,0 -10.019,-4.488 -10.019,-10.02 0,-0.269 0.011,-0.596 0.032,-0.955 -1.931,0.283 -3.965,0.006 -5.849,-0.919 -4.968,-2.438 -6.826,-8.35 -4.579,-13.411 C -17.007,5.773 -0.712,-0.205 0,0" />
      </g>
      <g
         id="g3428"
         transform="translate(349.6123,50.4155)">
        <path
           id="path3430"
           style="fill:#aed4c4;fill-opacity:1;fill-rule:nonzero;stroke:none"
           d="M 0,0 C -1.542,8.707 -3.807,7.035 -3.807,7.035 -6.317,5.608 0,0 0,0 m -6.93,6.559 c -0.076,0.125 -0.142,0.235 -0.19,0.328 -0.867,1.615 -0.372,3.568 1.107,4.358 1.478,0.79 3.378,0.123 4.243,-1.489 0.042,-0.078 0.089,-0.179 0.141,-0.285 0.469,0.359 1.058,0.567 1.704,0.567 1.709,0 3.132,-1.459 3.321,-3.256 0.3,-2.801 -3.113,-6.877 -3.335,-6.921 -0.158,-0.161 -5.633,-0.764 -7.814,0.942 -1.423,1.113 -1.822,3.148 -0.878,4.571 0.42,0.629 1.027,1.03 1.701,1.185" />
      </g>
      <g
         id="g3432"
         transform="translate(373.9961,83.7368)">
        <path
           id="path3434"
           style="fill:#aed4c4;fill-opacity:1;fill-rule:nonzero;stroke:none"
           d="m 0,0 c 0.191,-0.352 0.391,-0.684 0.592,-1.017 l 0,10.264 c -0.221,0.466 -0.399,0.863 -0.509,1.124 0,0 0.012,-0.003 -0.083,0.201 -0.079,-0.19 -0.084,-0.201 -0.084,-0.201 -1.035,-2.462 -6.921,-15.002 -17.954,-17.873 -7.981,-2.081 -12.552,0.913 -12.305,6.317 0,0 -5.765,-7.202 0.571,-10.541 -2.943,-1.294 -5.801,-2.864 -8.424,-4.81 -0.059,-0.044 -0.109,-0.088 -0.167,-0.13 -3.131,-1.92 -12.068,-9.117 -14.241,-5.912 0,0 4.152,3.77 0.776,7.427 -3.194,3.453 -9.423,2.162 -10.53,-3.821 -0.446,-2.416 0.857,-12.258 12.738,-9.659 -9.908,-16.476 1.177,-32.183 16.236,-30.163 14.309,1.918 13.827,15.688 9.321,20.741 -5.155,5.778 -14.803,3.492 -14.448,-3.495 0.426,-8.35 10.511,-5.136 10.511,-5.136 -0.111,-3.547 -5.541,-5.994 -11.193,-4.767 -7.65,1.665 -11.859,16.96 4.988,29.375 10.695,7.881 24.116,9.383 31.476,9.548 0,0 1.009,-0.03 2.737,0.005 0.219,-0.004 0.388,-0.005 0.584,-0.007 l 0,6.469 -0.168,0 -0.416,0 -0.418,0 c -0.146,0 -0.284,-0.002 -0.42,-0.002 C -1.948,-6.074 -3.3,-6.118 -4.794,-6.202 -3.168,-4.689 -1.445,-2.668 0,0" />
      </g>
      <g
         id="g3436"
         transform="translate(192.6279,247.5942)">
        <path
           id="path3438"
           style="fill:#aed4c4;fill-opacity:1;fill-rule:nonzero;stroke:none"
           d="m 0,0 0,-35.172 32.272,0 -16.678,16.677 -4.689,-4.69 5.356,-5.355 -9.63,0 0,20.777 c 20.784,-4.367 37.87,-19.921 44.186,-40.187 l -44.197,0 0,-15.88 47.399,0 0,-3.231 -47.399,0 0,-15.879 44.197,0 c -6.316,-20.265 -23.402,-35.818 -44.186,-40.188 l 0,20.778 9.63,0 -5.356,-5.355 4.689,-4.69 16.678,16.677 -32.272,0 0,-35.174 3.78,0.536 c 26.564,3.76 48.506,23.847 54.604,49.98 l 0.95,4.068 -46.081,0 0,2.616 47.397,0 0,16.494 -47.397,0 0,2.615 46.081,0 -0.95,4.068 C 52.286,-24.379 30.344,-4.295 3.78,-0.534 L 0,0 Z" />
      </g>
      <g
         id="g3440"
         transform="translate(166.5566,135.1997)">
        <path
           id="path3442"
           style="fill:#aed4c4;fill-opacity:1;fill-rule:nonzero;stroke:none"
           d="m 0,0 4.691,4.689 -5.357,5.356 9.63,0 0,-20.778 c -20.782,4.37 -37.866,19.922 -44.188,40.188 l 44.197,0 0,15.879 -47.395,0 0,3.23 47.395,0 0,15.88 -44.197,0 c 6.322,20.267 23.406,35.821 44.188,40.188 l 0,-20.777 -9.63,0 L 4.691,89.21 0,93.899 -16.673,77.222 l 32.269,0 0,35.173 -3.78,-0.535 C -14.745,108.1 -36.69,88.015 -42.788,61.88 l -0.948,-4.068 46.079,0 0,-2.616 -47.396,0 0,-16.494 47.396,0 0,-2.616 -46.079,0 0.948,-4.067 c 6.098,-26.133 28.043,-46.22 54.604,-49.98 l 3.78,-0.537 0,35.175 -32.269,0 L 0,0 Z" />
      </g>
      <path
         id="path3444"
         style="fill:#aed4c4;fill-opacity:1;fill-rule:nonzero;stroke:none"
         d="m 190.216,201.048 -5.491,0 0,-38.007 5.491,0 0,38.007 z m 6.633,-44.639 -18.755,0 0,51.273 18.755,0 0,-51.273 z" />
      <g
         id="g3446"
         transform="translate(187.415,252.8125)">
        <path
           id="path3448"
           style="fill:#aed4c4;fill-opacity:1;fill-rule:nonzero;stroke:none"
           d="M 0,0 C 10.07,28.122 -0.121,26.772 -0.121,26.772 -10.682,26.526 0,0 0,0 m -23.615,14.63 c -2.661,5.524 -0.429,12.158 5.077,14.858 2.432,1.195 5.087,1.415 7.527,0.815 -0.033,0.484 -0.052,0.913 -0.052,1.262 0,6.132 4.972,11.102 11.103,11.102 6.131,0 11.103,-4.97 11.103,-11.102 0,-0.298 -0.015,-0.662 -0.039,-1.058 2.142,0.313 4.396,0.006 6.482,-1.019 5.503,-2.7 7.563,-9.25 5.079,-14.858 C 18.791,5.895 0.737,-0.726 -0.05,-0.496 -0.836,-0.726 -19.525,6.14 -23.615,14.63" />
      </g>
      <g
         id="g3450"
         transform="translate(160.3564,275.9683)">
        <path
           id="path3452"
           style="fill:#aed4c4;fill-opacity:1;fill-rule:nonzero;stroke:none"
           d="M 0,0 C -1.71,9.651 -4.222,7.797 -4.222,7.797 -7.002,6.214 0,0 0,0 M 3.762,7.513 C 4.095,4.41 0.311,-0.106 0.063,-0.153 c -0.175,-0.179 -6.238,-0.85 -8.658,1.043 -1.575,1.231 -2.017,3.487 -0.97,5.064 0.463,0.695 1.137,1.14 1.882,1.314 -0.084,0.136 -0.155,0.26 -0.212,0.361 -0.957,1.79 -0.408,3.952 1.23,4.829 1.637,0.879 3.742,0.141 4.7,-1.651 0.048,-0.086 0.101,-0.194 0.157,-0.314 0.522,0.397 1.17,0.631 1.892,0.631 1.891,-0.001 3.464,-1.618 3.678,-3.611" />
      </g>
      <g
         id="g3454"
         transform="translate(214.4004,275.9683)">
        <path
           id="path3456"
           style="fill:#aed4c4;fill-opacity:1;fill-rule:nonzero;stroke:none"
           d="M 0,0 C 0,0 7.003,6.214 4.222,7.797 4.222,7.797 1.712,9.651 0,0 m -3.762,7.513 c 0.214,1.993 1.79,3.61 3.682,3.611 0.718,0 1.366,-0.234 1.892,-0.631 0.054,0.12 0.105,0.228 0.153,0.314 0.958,1.792 3.063,2.53 4.7,1.651 C 8.305,11.581 8.854,9.419 7.895,7.629 7.84,7.528 7.767,7.404 7.682,7.268 8.428,7.094 9.102,6.649 9.564,5.954 10.612,4.377 10.17,2.121 8.595,0.89 6.175,-1.003 0.109,-0.332 -0.061,-0.153 -0.311,-0.106 -4.093,4.41 -3.762,7.513" />
      </g>
      <g
         id="g3458"
         transform="translate(192.6982,306.0156)">
        <path
           id="path3460"
           style="fill:#aed4c4;fill-opacity:1;fill-rule:nonzero;stroke:none"
           d="m 0,0 c -1.801,1.675 -3.71,3.916 -5.311,6.873 -1.6,-2.957 -3.509,-5.197 -5.312,-6.872 1.65,0.093 3.141,0.14 4.376,0.153 0.151,0.001 0.302,0.002 0.466,0.003 0.163,0.002 0.311,0.002 0.461,0.002 0.15,0 0.3,0 0.462,-0.002 C -4.694,0.156 -4.545,0.155 -4.393,0.154 -3.153,0.141 -1.657,0.094 0,0 m 49.671,-24.851 c 3.863,-6.426 4.849,-12.741 3.766,-18.137 -5.031,-2.897 -8.364,-7.647 -9.36,-13.047 -3.538,-1.973 -7.801,-2.853 -12.399,-2.236 -15.854,2.126 -15.323,17.383 -10.326,22.979 5.71,6.405 16.399,3.868 16.007,-3.873 -0.471,-9.248 -11.647,-5.687 -11.647,-5.687 0.12,-3.931 6.14,-6.641 12.404,-5.28 8.472,1.84 13.138,18.789 -5.527,32.542 -11.85,8.733 -26.721,10.397 -34.88,10.583 0,0 -1.116,-0.033 -3.029,0.004 -1.912,-0.037 -3.029,-0.004 -3.029,-0.004 -8.157,-0.186 -23.027,-1.85 -34.88,-10.583 -18.664,-13.753 -14,-30.702 -5.524,-32.542 6.263,-1.361 12.279,1.349 12.401,5.28 0,0 -11.175,-3.561 -11.644,5.687 -0.395,7.741 10.295,10.278 16.009,3.873 4.991,-5.596 5.525,-20.853 -10.328,-22.979 -4.683,-0.627 -9.013,0.299 -12.588,2.35 -1.007,5.284 -4.26,9.937 -9.148,12.823 -1.119,5.419 -0.147,11.777 3.742,18.248 -13.162,-2.882 -14.609,8.021 -14.112,10.699 1.229,6.632 8.13,8.064 11.666,4.238 3.745,-4.055 -0.858,-8.23 -0.858,-8.23 2.411,-3.552 12.315,4.424 15.783,6.553 0.062,0.046 0.117,0.094 0.182,0.141 2.907,2.157 6.078,3.898 9.341,5.333 -7.007,3.701 -0.624,11.676 -0.624,11.676 -0.274,-5.987 4.79,-9.303 13.634,-7 12.22,3.183 18.744,17.075 19.893,19.802 0,0 -0.013,0 0.093,0.223 0.086,-0.21 0.089,-0.223 0.089,-0.223 1.149,-2.727 7.674,-16.619 19.898,-19.802 8.841,-2.303 13.907,1.013 13.631,7 0,0 6.388,-7.981 -0.63,-11.679 3.261,-1.435 6.428,-3.174 9.334,-5.33 0.064,-0.047 0.119,-0.095 0.181,-0.141 3.468,-2.131 13.372,-10.105 15.784,-6.553 0,0 -4.606,4.175 -0.861,8.23 3.538,3.826 10.438,2.394 11.666,-4.238 0.497,-2.677 -0.95,-13.58 -14.11,-10.7" />
      </g>
      <g
         id="g3462"
         transform="translate(120.1738,204.1504)">
        <path
           id="path3464"
           style="fill:#aed4c4;fill-opacity:1;fill-rule:nonzero;stroke:none"
           d="M 0,0 C -23.781,18.071 -25.564,7.945 -25.564,7.945 -28.509,-2.198 0,0 0,0 m 0.459,-0.201 c -0.018,-0.819 -12.196,-16.571 -21.523,-17.913 -6.072,-0.875 -11.722,3.255 -12.64,9.317 -0.406,2.677 0.184,5.275 1.489,7.422 -0.468,0.115 -0.884,0.227 -1.217,0.333 -5.847,1.847 -9.088,8.084 -7.242,13.93 1.847,5.849 8.084,9.092 13.934,7.243 0.28,-0.091 0.623,-0.212 0.997,-0.355 0.345,2.136 1.316,4.192 2.922,5.874 4.233,4.436 11.101,4.426 15.697,0.367 C 0.04,19.692 0.915,0.483 0.459,-0.201" />
      </g>
      <g
         id="g3466"
         transform="translate(89.9414,185.3188)">
        <path
           id="path3468"
           style="fill:#aed4c4;fill-opacity:1;fill-rule:nonzero;stroke:none"
           d="M 0,0 C -9.713,1.276 -8.705,-1.675 -8.705,-1.675 -8.032,-4.803 0,0 0,0 m 0.168,0.018 c 0.115,-0.219 -1.071,-6.206 -3.606,-7.941 -1.647,-1.135 -3.933,-0.875 -5.119,0.598 -0.524,0.653 -0.746,1.429 -0.687,2.189 -0.154,-0.037 -0.292,-0.069 -0.408,-0.09 -1.996,-0.377 -3.892,0.8 -4.235,2.625 -0.343,1.829 0.996,3.612 2.991,3.987 0.097,0.017 0.216,0.033 0.347,0.052 -0.22,0.618 -0.246,1.306 -0.034,1.993 0.573,1.804 2.59,2.817 4.553,2.422 3.059,-0.618 6.227,-5.586 6.198,-5.835" />
      </g>
      <g
         id="g3470"
         transform="translate(106.2227,236.8535)">
        <path
           id="path3472"
           style="fill:#aed4c4;fill-opacity:1;fill-rule:nonzero;stroke:none"
           d="M 0,0 C 0,0 -3.814,8.549 -6.159,6.376 -6.159,6.376 -8.686,4.541 0,0 m -9.713,5.129 c -1.417,1.456 -1.49,3.684 -0.159,4.982 1.33,1.297 3.556,1.171 4.974,-0.285 0.082,-0.082 0.178,-0.191 0.282,-0.309 0.392,0.658 1.015,1.165 1.82,1.399 1.818,0.524 3.837,-0.578 4.538,-2.451 1.075,-2.879 -1.39,-8.459 -1.613,-8.571 -0.12,-0.219 -5.568,-2.469 -8.425,-1.214 -1.836,0.803 -2.906,2.791 -2.336,4.594 0.215,0.687 0.635,1.233 1.171,1.614 -0.097,0.088 -0.184,0.172 -0.252,0.241" />
      </g>
      <g
         id="g3474"
         transform="translate(67.8311,215.0811)">
        <path
           id="path3476"
           style="fill:#aed4c4;fill-opacity:1;fill-rule:nonzero;stroke:none"
           d="M 0,0 C 0.41,1.602 0.814,3.04 1.175,4.222 1.219,4.364 1.264,4.51 1.311,4.667 1.359,4.821 1.403,4.964 1.449,5.105 1.495,5.249 1.541,5.392 1.589,5.546 1.64,5.701 1.688,5.846 1.734,5.988 2.12,7.166 2.616,8.579 3.203,10.133 1.063,8.918 -1.65,7.772 -4.952,7.137 -2.614,4.719 -1.055,2.224 0,0 M 68.311,22.783 C 61.509,8.307 47.119,13.411 43.285,19.858 c -4.384,7.376 1.253,16.804 8.518,14.098 8.674,-3.236 1.913,-12.82 1.913,-12.82 3.786,-1.068 8.184,3.852 8.772,10.24 C 63.283,40.009 48.53,49.563 29.793,35.908 17.896,27.238 11.829,13.558 9.194,5.834 9.194,5.834 8.89,4.763 8.279,2.949 7.738,1.116 7.372,0.058 7.372,0.058 5.089,-7.777 2.196,-22.457 6.951,-36.383 c 7.493,-21.945 25.062,-22.604 29.369,-15.076 3.189,5.561 2.412,12.113 -1.298,13.414 0,0 0.029,-11.725 -8.931,-9.39 -7.501,1.954 -6.699,12.914 1.126,16.433 6.842,3.074 21.55,-1.014 18.803,-16.773 -0.805,-4.613 -2.961,-8.437 -5.952,-11.223 -5.401,0.675 -10.905,-1.041 -15.194,-4.918 -5.464,0.598 -11.179,3.436 -16.136,9.046 -1.216,-13.419 -12.054,-11.506 -14.461,-10.226 -5.953,3.168 -5.24,10.18 -0.524,12.401 4.993,2.35 7.587,-3.3 7.587,-3.3 4.115,1.23 -0.511,13.078 -1.495,17.029 -0.024,0.073 -0.053,0.139 -0.077,0.212 -1.179,3.417 -1.883,6.956 -2.271,10.493 -5.641,-5.571 -11.323,2.945 -11.323,2.945 5.625,-2.069 10.315,1.765 10.784,10.888 0.646,12.615 -10.639,23.021 -12.892,24.937 0,0 -0.004,-0.011 -0.186,0.156 0.228,0.021 0.241,0.021 0.241,0.021 2.946,0.271 18.158,2.308 24.875,13.004 4.86,7.737 3.226,13.567 -2.567,15.107 0,0 9.536,3.69 10.946,-4.12 2.35,2.676 4.965,5.174 7.895,7.296 0.061,0.044 0.122,0.08 0.181,0.126 3.069,2.661 13.673,9.709 11.01,13.081 0,0 -5.37,-3.133 -8.106,1.659 -2.583,4.526 0.864,10.674 7.555,9.847 2.703,-0.332 12.672,-4.994 5.961,-16.676 7.556,1.808 14.067,0.707 18.945,-2.173 4.888,-2.886 8.141,-7.539 9.148,-12.823 0.743,-3.895 0.275,-8.125 -1.653,-12.231" />
      </g>
      <g
         id="g3478"
         transform="translate(146.0938,124.6016)">
        <path
           id="path3480"
           style="fill:#aed4c4;fill-opacity:1;fill-rule:nonzero;stroke:none"
           d="m 0,0 c 0,0 -24.29,-15.093 -15.917,-21.531 0,0 7.43,-7.108 15.917,21.531 m -3.232,-34.183 c -2.291,0.408 -4.288,1.491 -5.83,3.009 -0.219,-0.334 -0.42,-0.636 -0.596,-0.878 -3.621,-4.948 -10.569,-6.021 -15.516,-2.4 -4.947,3.62 -6.022,10.571 -2.401,15.518 0.206,0.282 0.475,0.615 0.786,0.988 -2.321,0.958 -4.334,2.703 -5.592,5.103 -2.846,5.432 -0.732,12.102 4.681,14.989 8.314,4.432 27.452,-1.063 27.95,-1.714 0.77,-0.28 11.427,-16.288 9.392,-25.623 -1.306,-5.994 -6.836,-10.065 -12.874,-8.992" />
      </g>
      <g
         id="g3482"
         transform="translate(110.5791,121.9023)">
        <path
           id="path3484"
           style="fill:#aed4c4;fill-opacity:1;fill-rule:nonzero;stroke:none"
           d="m 0,0 c 0,0 -9.321,-0.878 -8.01,-3.797 0,0 0.93,-2.978 8.01,3.797 m 0.143,0.083 c 0.17,-0.18 0.556,-6.059 -1.546,-8.369 -1.351,-1.482 -3.574,-1.854 -5.104,-0.739 -0.577,0.425 -0.964,0.997 -1.152,1.627 -0.114,-0.065 -0.223,-0.12 -0.311,-0.163 -1.831,-0.877 -3.965,-0.231 -4.769,1.445 -0.802,1.675 0.032,3.745 1.863,4.622 0.105,0.049 0.235,0.104 0.384,0.166 -0.497,0.582 -0.781,1.339 -0.742,2.173 0.086,1.891 1.775,3.45 3.773,3.513 3.072,0.098 7.568,-4.025 7.604,-4.275" />
      </g>
      <g
         id="g3486"
         transform="translate(154.1846,89.9785)">
        <path
           id="path3488"
           style="fill:#aed4c4;fill-opacity:1;fill-rule:nonzero;stroke:none"
           d="M 0,0 C -4.316,-8.796 -1.196,-8.784 -1.196,-8.784 1.983,-9.149 0,0 0,0 m 0.041,0.16 c 0.248,0.045 5.537,-2.997 6.372,-5.955 0.545,-1.924 -0.434,-4.005 -2.21,-4.661 -0.786,-0.286 -1.59,-0.247 -2.295,0.052 -0.011,-0.159 -0.027,-0.3 -0.044,-0.414 -0.283,-2.011 -2.004,-3.431 -3.842,-3.175 -1.84,0.26 -3.101,2.102 -2.817,4.112 0.012,0.097 0.034,0.216 0.061,0.344 -0.658,-0.011 -1.32,0.186 -1.9,0.607 -1.527,1.12 -1.841,3.355 -0.838,5.089 1.567,2.701 7.289,4.112 7.513,4.001" />
      </g>
      <g
         id="g3490"
         transform="translate(118.9258,78.5522)">
        <path
           id="path3492"
           style="fill:#aed4c4;fill-opacity:1;fill-rule:nonzero;stroke:none"
           d="M 0,0 C -1.391,0.903 -2.626,1.75 -3.634,2.471 -3.758,2.559 -3.879,2.646 -4.012,2.741 -4.143,2.839 -4.263,2.924 -4.388,3.016 -4.504,3.104 -4.627,3.191 -4.757,3.286 -4.888,3.385 -5.009,3.477 -5.13,3.568 -6.119,4.307 -7.294,5.228 -8.572,6.277 -8.108,3.859 -7.89,0.923 -8.346,-2.407 -5.308,-0.968 -2.443,-0.287 0,0 M 68.368,2.808 C 66.012,-2.06 61.532,-6.44 54.766,-9.283 c 12.326,-5.448 7.043,-15.108 5.06,-16.973 -4.908,-4.628 -11.325,-1.703 -11.918,3.471 -0.629,5.482 5.556,6.131 5.556,6.131 0.153,4.291 -12.542,3.706 -16.602,4.039 -0.081,0 -0.154,-0.007 -0.235,-0.007 -3.618,-0.023 -7.202,0.446 -10.681,1.212 3.484,-7.131 -6.388,-9.794 -6.388,-9.794 3.757,4.667 1.628,10.334 -6.866,13.699 -11.742,4.65 -25.212,-2.705 -27.751,-4.228 0,0 -0.01,-0.008 -0.204,-0.127 0.048,0.243 0.055,0.236 0.055,0.236 0.688,2.879 3.629,17.941 -4.353,27.731 -5.776,7.08 -11.821,7.398 -15.133,2.403 0,0 -0.443,10.204 7.397,9.054 -1.784,3.086 -3.314,6.361 -4.388,9.819 -0.021,0.074 -0.038,0.145 -0.059,0.218 -1.541,3.756 -4.821,16.057 -8.867,14.614 0,0 1.248,-6.089 -4.169,-7.146 -5.114,-0.998 -9.836,4.232 -6.91,10.309 1.182,2.453 8.791,10.407 17.71,0.308 0.682,7.517 3.655,13.216 7.759,16.927 4.289,3.877 9.793,5.593 15.195,4.918 4.012,-0.499 7.963,-2.308 11.303,-5.516 11.534,-11.08 2.092,-23.076 -5.243,-24.641 -8.391,-1.794 -15.518,6.566 -10.626,12.58 5.842,7.185 12.755,-2.29 12.755,-2.29 2.221,3.245 -1.031,8.986 -6.89,11.589 -7.925,3.519 -21.699,-7.4 -14.762,-29.526 4.405,-14.049 15.419,-24.171 21.894,-29.139 0,0 0.918,-0.636 2.441,-1.796 C 1.41,7.694 2.292,7.009 2.292,7.009 8.983,2.337 21.97,-5.104 36.686,-5.058 c 23.189,0.074 29.432,16.504 23.682,22.997 -4.249,4.798 -10.707,6.162 -13.127,3.064 0,0 11.12,-3.727 6.037,-11.469 -4.254,-6.478 -14.375,-2.211 -15.205,6.329 -0.721,7.468 7.861,20.094 21.909,12.445 3.855,-2.098 6.663,-5.103 8.386,-8.536 -2.609,-5.201 -2.697,-11.39 0,-16.964" />
      </g>
      <g
         id="g3494"
         transform="translate(254.415,204.1504)">
        <path
           id="path3496"
           style="fill:#aed4c4;fill-opacity:1;fill-rule:nonzero;stroke:none"
           d="M 0,0 C 0,0 28.511,-2.198 25.564,7.945 25.564,7.945 23.78,18.071 0,0 m -0.46,-0.201 c -0.456,0.684 0.422,19.893 7.583,26.218 4.597,4.059 11.465,4.069 15.697,-0.367 1.606,-1.682 2.576,-3.738 2.923,-5.874 0.374,0.143 0.714,0.264 0.999,0.355 5.848,1.849 12.086,-1.394 13.93,-7.243 1.848,-5.846 -1.393,-12.083 -7.243,-13.93 -0.331,-0.106 -0.747,-0.218 -1.214,-0.333 1.304,-2.147 1.894,-4.745 1.488,-7.422 -0.918,-6.062 -6.57,-10.192 -12.639,-9.317 -9.327,1.342 -21.505,17.094 -21.524,17.913" />
      </g>
      <g
         id="g3498"
         transform="translate(284.6475,185.3188)">
        <path
           id="path3500"
           style="fill:#aed4c4;fill-opacity:1;fill-rule:nonzero;stroke:none"
           d="m 0,0 c 0,0 8.03,-4.803 8.704,-1.675 0,0 1.01,2.951 -8.704,1.675 M 10.895,1.386 C 12.891,1.011 14.23,-0.772 13.886,-2.601 13.544,-4.426 11.646,-5.603 9.651,-5.226 9.536,-5.205 9.398,-5.173 9.243,-5.136 9.303,-5.896 9.081,-6.672 8.557,-7.325 7.366,-8.798 5.085,-9.058 3.437,-7.923 0.901,-6.188 -0.286,-0.201 -0.169,0.018 -0.197,0.267 2.97,5.235 6.029,5.853 7.992,6.248 10.008,5.235 10.581,3.431 10.794,2.744 10.769,2.056 10.549,1.438 10.678,1.419 10.798,1.403 10.895,1.386" />
      </g>
      <g
         id="g3502"
         transform="translate(268.3652,236.8535)">
        <path
           id="path3504"
           style="fill:#aed4c4;fill-opacity:1;fill-rule:nonzero;stroke:none"
           d="M 0,0 C 8.686,4.541 6.16,6.376 6.16,6.376 3.814,8.549 0,0 0,0 m -0.129,-0.106 c -0.223,0.112 -2.687,5.692 -1.611,8.571 0.7,1.873 2.719,2.975 4.535,2.451 0.805,-0.234 1.43,-0.741 1.821,-1.399 0.107,0.118 0.2,0.227 0.282,0.309 1.419,1.456 3.644,1.582 4.974,0.285 C 11.204,8.813 11.132,6.585 9.715,5.129 9.645,5.06 9.559,4.976 9.459,4.888 9.997,4.507 10.416,3.961 10.633,3.274 11.201,1.471 10.133,-0.517 8.296,-1.32 5.438,-2.575 -0.01,-0.325 -0.129,-0.106" />
      </g>
      <g
         id="g3506"
         transform="translate(311.708,222.2183)">
        <path
           id="path3508"
           style="fill:#aed4c4;fill-opacity:1;fill-rule:nonzero;stroke:none"
           d="m 0,0 c -3.302,0.635 -6.015,1.781 -8.155,2.996 0.588,-1.554 1.084,-2.967 1.469,-4.145 0.048,-0.143 0.096,-0.287 0.145,-0.442 0.049,-0.154 0.096,-0.297 0.141,-0.441 0.044,-0.141 0.089,-0.284 0.138,-0.438 0.048,-0.157 0.093,-0.303 0.136,-0.446 0.36,-1.181 0.765,-2.617 1.175,-4.219 C -3.898,-4.914 -2.336,-2.417 0,0 M 11.168,3.528 C 10.986,3.361 10.982,3.372 10.982,3.372 8.727,1.456 -2.554,-8.95 -1.908,-21.565 c 0.469,-9.123 5.16,-12.957 10.783,-10.888 0,0 -5.682,-8.518 -11.323,-2.943 -0.386,-3.537 -1.09,-7.079 -2.27,-10.495 -0.027,-0.077 -0.056,-0.146 -0.083,-0.225 -0.99,-3.964 -5.599,-15.786 -1.489,-17.016 0,0 2.594,5.65 7.587,3.299 4.715,-2.22 5.429,-9.232 -0.525,-12.4 -2.406,-1.28 -13.247,-3.193 -14.461,10.226 -4.959,-5.61 -10.672,-8.448 -16.138,-9.046 -4.286,3.877 -9.79,5.593 -15.192,4.918 -2.991,2.786 -5.147,6.61 -5.952,11.223 -2.749,15.759 11.958,19.847 18.803,16.773 7.825,-3.519 8.626,-14.479 1.127,-16.433 -8.958,-2.335 -8.932,9.39 -8.932,9.39 -3.711,-1.301 -4.486,-7.853 -1.298,-13.414 4.307,-7.528 21.874,-6.869 29.37,15.076 4.753,13.926 1.861,28.605 -0.42,36.441 0,0 -0.368,1.058 -0.909,2.891 -0.611,1.814 -0.917,2.885 -0.917,2.885 -2.631,7.724 -8.699,21.404 -20.596,30.074 -18.737,13.655 -33.491,4.101 -32.696,-4.532 0.588,-6.388 4.986,-11.308 8.772,-10.24 0,0 -6.762,9.584 1.913,12.82 7.265,2.705 12.902,-6.722 8.516,-14.098 -3.831,-6.448 -18.221,-11.551 -25.023,2.925 -1.911,4.065 -2.383,8.252 -1.672,12.117 0.996,5.399 4.329,10.149 9.36,13.046 4.858,2.798 11.294,3.849 18.751,2.063 -6.71,11.683 3.258,16.344 5.961,16.677 6.694,0.826 10.137,-5.321 7.555,-9.847 -2.735,-4.792 -8.104,-1.659 -8.104,-1.659 -2.666,-3.374 7.954,-10.429 11.013,-13.087 0.058,-0.043 0.117,-0.079 0.175,-0.12 2.932,-2.122 5.547,-4.62 7.896,-7.298 1.41,7.814 10.947,4.122 10.947,4.122 -5.793,-1.54 -7.428,-7.37 -2.568,-15.107 C -7.231,5.856 7.983,3.82 10.928,3.548 c 0,0 0.014,0 0.24,-0.02" />
      </g>
      <g
         id="g3510"
         transform="translate(228.4971,124.6016)">
        <path
           id="path3512"
           style="fill:#aed4c4;fill-opacity:1;fill-rule:nonzero;stroke:none"
           d="M 0,0 C 8.484,-28.639 15.912,-21.531 15.912,-21.531 24.288,-15.093 0,0 0,0 m 27.697,2.146 c 5.413,-2.887 7.529,-9.557 4.681,-14.989 -1.258,-2.4 -3.269,-4.145 -5.592,-5.103 0.311,-0.373 0.58,-0.706 0.785,-0.988 3.623,-4.947 2.548,-11.898 -2.4,-15.518 -4.947,-3.621 -11.895,-2.548 -15.516,2.4 -0.175,0.242 -0.376,0.544 -0.596,0.878 -1.542,-1.518 -3.539,-2.601 -5.83,-3.009 -6.037,-1.073 -11.568,2.998 -12.874,8.992 -2.035,9.335 8.622,25.343 9.393,25.623 0.497,0.651 19.635,6.146 27.949,1.714" />
      </g>
      <g
         id="g3514"
         transform="translate(264.0078,121.9023)">
        <path
           id="path3516"
           style="fill:#aed4c4;fill-opacity:1;fill-rule:nonzero;stroke:none"
           d="M 0,0 C 7.082,-6.775 8.011,-3.797 8.011,-3.797 9.322,-0.878 0,0 0,0 m 1.404,-8.286 c -2.103,2.31 -1.715,8.189 -1.544,8.369 0.035,0.25 4.531,4.373 7.602,4.275 1.998,-0.063 3.687,-1.622 3.774,-3.513 0.038,-0.834 -0.246,-1.591 -0.743,-2.173 0.149,-0.062 0.28,-0.117 0.382,-0.166 1.833,-0.877 2.668,-2.947 1.864,-4.622 C 11.937,-7.792 9.805,-8.438 7.972,-7.561 7.884,-7.518 7.774,-7.463 7.659,-7.398 7.472,-8.028 7.086,-8.6 6.508,-9.025 4.979,-10.14 2.755,-9.768 1.404,-8.286" />
      </g>
      <g
         id="g3518"
         transform="translate(220.4014,89.9785)">
        <path
           id="path3520"
           style="fill:#aed4c4;fill-opacity:1;fill-rule:nonzero;stroke:none"
           d="M 0,0 C 0,0 -1.98,-9.149 1.199,-8.784 1.199,-8.784 4.318,-8.796 0,0 M 7.475,-3.841 C 8.479,-5.575 8.162,-7.81 6.636,-8.93 6.056,-9.351 5.395,-9.548 4.737,-9.537 c 0.027,-0.128 0.047,-0.247 0.061,-0.344 0.285,-2.01 -0.977,-3.852 -2.818,-4.112 -1.838,-0.256 -3.56,1.164 -3.842,3.175 -0.015,0.114 -0.033,0.255 -0.041,0.414 -0.706,-0.299 -1.512,-0.338 -2.297,-0.052 -1.775,0.656 -2.755,2.737 -2.21,4.661 0.836,2.958 6.124,6 6.37,5.955 0.226,0.111 5.948,-1.3 7.515,-4.001" />
      </g>
      <g
         id="g3522"
         transform="translate(264.2354,84.8291)">
        <path
           id="path3524"
           style="fill:#aed4c4;fill-opacity:1;fill-rule:nonzero;stroke:none"
           d="m 0,0 c -1.278,-1.049 -2.454,-1.97 -3.442,-2.709 -0.121,-0.091 -0.243,-0.183 -0.373,-0.282 -0.13,-0.094 -0.251,-0.182 -0.372,-0.27 -0.123,-0.092 -0.244,-0.177 -0.372,-0.275 -0.134,-0.094 -0.255,-0.182 -0.38,-0.27 -1.008,-0.721 -2.243,-1.568 -3.634,-2.471 2.444,-0.287 5.308,-0.968 8.345,-2.407 C -0.683,-5.354 -0.465,-2.418 0,0 M 36.207,38.792 C 30.79,39.85 32.041,45.938 32.041,45.938 27.993,47.381 24.712,35.08 23.172,31.324 23.149,31.251 23.134,31.18 23.111,31.106 22.039,27.648 20.509,24.373 18.724,21.287 26.563,22.439 26.121,12.233 26.121,12.233 22.808,17.228 16.764,16.91 10.988,9.83 3.007,0.04 5.948,-15.022 6.633,-17.9 c 0,0 0.01,0.006 0.056,-0.237 -0.192,0.119 -0.204,0.127 -0.204,0.127 -2.539,1.523 -16.01,8.878 -27.75,4.228 -8.496,-3.365 -10.624,-9.032 -6.865,-13.699 0,0 -9.872,2.663 -6.391,9.795 -3.478,-0.767 -7.061,-1.235 -10.679,-1.213 -0.08,0 -0.155,0.007 -0.236,0.007 -4.06,-0.333 -16.751,0.252 -16.6,-4.039 0,0 6.184,-0.649 5.555,-6.131 -0.592,-5.174 -7.01,-8.099 -11.917,-3.471 -1.983,1.866 -7.267,11.525 5.06,16.973 -6.766,2.843 -11.247,7.223 -13.603,12.091 -2.698,5.574 -2.61,11.763 0,16.964 1.722,3.433 4.532,6.438 8.386,8.536 14.048,7.649 22.63,-4.977 21.909,-12.445 -0.829,-8.54 -10.952,-12.807 -15.206,-6.329 -5.084,7.742 6.039,11.469 6.039,11.469 -2.42,3.098 -8.879,1.734 -13.13,-3.064 -5.747,-6.493 0.496,-22.923 23.684,-22.997 14.719,-0.045 27.701,7.396 34.394,12.067 0,0 0.882,0.685 2.447,1.783 1.522,1.16 2.44,1.796 2.44,1.796 6.475,4.968 17.49,15.09 21.896,29.139 6.936,22.126 -6.839,33.045 -14.766,29.526 -5.857,-2.603 -9.109,-8.344 -6.888,-11.589 0,0 6.913,9.475 12.755,2.29 4.893,-6.013 -2.234,-14.374 -10.626,-12.58 -7.335,1.566 -16.778,13.561 -5.243,24.641 3.34,3.208 7.291,5.015 11.304,5.516 5.401,0.675 10.905,-1.041 15.192,-4.918 4.105,-3.711 7.079,-9.41 7.762,-16.927 8.919,10.099 16.53,2.145 17.709,-0.308 2.927,-6.077 -1.799,-11.307 -6.91,-10.309" />
      </g>
      <g
         id="g3526"
         transform="translate(223.8936,373.5898)">
        <path
           id="path3528"
           style="fill:#aed4c4;fill-opacity:1;fill-rule:nonzero;stroke:none"
           d="m 0,0 -29.298,0 0,-9.815 27.318,0 c -3.906,-12.526 -14.466,-22.139 -27.312,-24.839 l 0,12.841 5.953,0 -3.312,-3.309 2.898,-2.899 10.308,10.308 -19.947,0 0,-21.741 2.338,0.331 c 16.418,2.325 29.982,14.74 33.749,30.892 l 0.586,2.515 -28.481,0 0,1.617 29.298,0 0,5.098 L 0,0.999 0,0 Z" />
      </g>
      <g
         id="g3530"
         transform="translate(146.5391,374.5884)">
        <path
           id="path3532"
           style="fill:#aed4c4;fill-opacity:1;fill-rule:nonzero;stroke:none"
           d="m 0,0 0,-5.098 29.298,0 0,-1.616 -28.482,0 0.585,-2.515 C 5.172,-25.381 18.732,-37.797 35.15,-40.122 l 2.338,-0.33 0,21.741 -19.945,0 10.307,-10.309 2.898,2.899 -3.312,3.31 5.954,0 0,-12.841 c -12.846,2.7 -23.407,12.312 -27.312,24.839 l 27.317,0 0,9.814 -29.293,0 L 4.102,0 0,0 Z" />
      </g>
      <g
         id="g3534"
         transform="translate(193.1113,374.5884)">
        <path
           id="path3536"
           style="fill:#aed4c4;fill-opacity:1;fill-rule:nonzero;stroke:none"
           d="m 0,0 -4.098,0 0,-11.811 -3.396,0 0,11.811 -4.1,0 0,-15.909 11.594,0 L 0,0 Z" />
      </g>
      <g
         id="g3538"
         transform="translate(40.8359,182.1968)">
        <path
           id="path3540"
           style="fill:#aed4c4;fill-opacity:1;fill-rule:nonzero;stroke:none"
           d="m 0,0 0,10.195 -29.296,0 0,1.617 28.482,0 -0.587,2.515 C -5.17,30.48 -18.733,42.893 -35.151,45.219 l -2.338,0.329 0,-21.739 19.948,0 -10.309,10.308 -2.897,-2.899 3.311,-3.311 -5.952,0 0,12.842 c 12.846,-2.7 23.405,-12.312 27.311,-24.838 l -27.318,0 0,-9.815 29.297,0 0,-1.997 -29.297,0 0,-9.815 27.318,0 c -3.906,-12.526 -14.465,-22.138 -27.311,-24.838 l 0,12.839 5.952,0 -3.311,-3.308 2.897,-2.899 10.309,10.308 -19.948,0 0,-21.74 2.338,0.33 c 16.418,2.324 29.981,14.74 33.75,30.892 l 0.587,2.515 -28.482,0 0,1.617 L 0,0 Z" />
      </g>
      <g
         id="g3542"
         transform="translate(5.957,203.0752)">
        <path
           id="path3544"
           style="fill:#aed4c4;fill-opacity:1;fill-rule:nonzero;stroke:none"
           d="m 0,0 -5.957,0 0,-4.099 1.858,0 0,-23.494 -1.858,0 0,-4.097 5.957,0 L 0,0 Z" />
      </g>
      <g
         id="g3546"
         transform="translate(334.5654,180.5796)">
        <path
           id="path3548"
           style="fill:#aed4c4;fill-opacity:1;fill-rule:nonzero;stroke:none"
           d="m 0,0 0.587,-2.515 c 3.767,-16.152 17.331,-28.568 33.749,-30.892 l 2.337,-0.329 0,21.739 -19.945,0 10.305,-10.308 2.901,2.899 -3.313,3.308 5.954,0 0,-12.839 c -12.847,2.7 -23.406,12.313 -27.311,24.838 l 27.316,0 0,9.815 -29.297,0 0,1.997 29.297,0 0,9.815 -27.316,0 c 3.905,12.526 14.464,22.139 27.311,24.838 l 0,-12.842 -5.954,0 3.313,3.311 -2.901,2.899 -10.306,-10.308 19.946,0 0,21.739 -2.337,-0.329 C 17.918,44.51 4.354,32.098 0.587,15.944 L 0,13.429 l 28.482,0 0,-1.617 -29.298,0 0,-10.195 29.298,0 L 28.482,0 0,0 Z" />
      </g>
      <g
         id="g3550"
         transform="translate(374.5879,175.4824)">
        <path
           id="path3552"
           style="fill:#aed4c4;fill-opacity:1;fill-rule:nonzero;stroke:none"
           d="m 0,0 -1.859,0 0,23.494 1.859,0 0,4.099 -5.959,0 0,-31.69 5.959,0 L 0,0 Z" />
      </g>
      <g
         id="g3554"
         transform="translate(227.9912,0)">
        <path
           id="path3556"
           style="fill:#aed4c4;fill-opacity:1;fill-rule:nonzero;stroke:none"
           d="m 0,0 0,5.096 -29.298,0 0,1.616 28.482,0 -0.586,2.516 C -5.17,25.38 -18.733,37.795 -35.151,40.12 l -2.338,0.331 0,-21.741 19.946,0 -10.308,10.308 -2.898,-2.899 3.312,-3.31 -5.953,0 0,12.843 C -20.544,32.951 -9.983,23.338 -6.078,10.811 l -27.318,0 0,-9.814 29.298,0 L -4.098,0 0,0 Z" />
      </g>
      <g
         id="g3558"
         transform="translate(150.6406,0.9971)">
        <path
           id="path3560"
           style="fill:#aed4c4;fill-opacity:1;fill-rule:nonzero;stroke:none"
           d="m 0,0 29.293,0 0,9.814 -27.316,0 c 3.905,12.527 14.465,22.14 27.311,24.841 l 0,-12.843 -5.954,0 3.312,3.31 -2.898,2.899 -10.307,-10.309 19.946,0 0,21.742 -2.338,-0.331 C 14.631,36.798 1.07,24.383 -2.7,8.23 l -0.585,-2.515 28.481,0 0,-1.616 -29.298,0 0,-5.096 4.102,0 L 0,0 Z" />
      </g>
      <g
         id="g3562"
         transform="translate(181.5176,0)">
        <path
           id="path3564"
           style="fill:#aed4c4;fill-opacity:1;fill-rule:nonzero;stroke:none"
           d="m 0,0 4.1,0 0,11.808 3.396,0 0,-11.808 4.098,0 0,15.907 L 0,15.907 0,0 Z" />
      </g>
    </pattern>
  </defs>
  <sodipodi:namedview
     id="base"
     pagecolor="#ffffff"
     bordercolor="#666666"
     borderopacity="1.0"
     inkscape:pageopacity="0.0"
     inkscape:pageshadow="2"
     inkscape:zoom="0.4"
     inkscape:cx="460.12516"
     inkscape:cy="443.9706"
     inkscape:document-units="px"
     inkscape:current-layer="g3370"
     showgrid="false"
     fit-margin-top="0"
     fit-margin-left="0"
     fit-margin-right="0"
     fit-margin-bottom="0"
     units="px"
     inkscape:window-width="1366"
     inkscape:window-height="715"
     inkscape:window-x="-8"
     inkscape:window-y="-8"
     inkscape:window-maximized="1" />
  <metadata
     id="metadata7">
    <rdf:RDF>
      <cc:Work
         rdf:about="">
        <dc:format>image/svg+xml</dc:format>
        <dc:type
           rdf:resource="http://purl.org/dc/dcmitype/StillImage" />
        <dc:title></dc:title>
        <cc:license
           rdf:resource="http://www.freepik.com/free-vector/asian-ornamental-pattern_755944.htm" />
      </cc:Work>
    </rdf:RDF>
  </metadata>
  <g
     inkscape:label="Layer 1"
     inkscape:groupmode="layer"
     id="layer1"
     transform="translate(111.42858,-23.7908)">
    <g
       transform="matrix(1.25,0,0,-1.25,-111.42858,1023.7908)"
       inkscape:label="Chinese 7"
       id="g3344">
      <g
         id="g3346">
        <g
           id="g3348">
          <g
             id="g3354">
            <g
               id="g3356">
              <path
                 inkscape:connector-curvature="0"
                 id="path3366"
                 style="fill:url(#radialGradient3358);stroke:none"
                 d="M 0,0 800,0 800,800 0,800 0,0 Z" />
            </g>
          </g>
        </g>
      </g>
      <g
         id="g3368">
        <g
           clip-path="url(#clipPath3372)"
           id="g3370">
          <path
             inkscape:connector-curvature="0"
             id="path3566"
             style="fill:url(#pattern3376);fill-opacity:1;fill-rule:nonzero;stroke:none"
             d="M 0,0 800,0 800,800 0,800 0,0 Z" />
        </g>
      </g>
    </g>
  </g>
</svg>
