<?xml version="1.0" encoding="UTF-8" standalone="no"?>
<!-- Created with Inkscape (http://www.inkscape.org/) -->

<svg
   xmlns:dc="http://purl.org/dc/elements/1.1/"
   xmlns:cc="http://creativecommons.org/ns#"
   xmlns:rdf="http://www.w3.org/1999/02/22-rdf-syntax-ns#"
   xmlns:svg="http://www.w3.org/2000/svg"
   xmlns="http://www.w3.org/2000/svg"
   xmlns:sodipodi="http://sodipodi.sourceforge.net/DTD/sodipodi-0.dtd"
   xmlns:inkscape="http://www.inkscape.org/namespaces/inkscape"
   width="250"
   height="250"
   viewBox="0 0 250 250"
   id="svg3589"
   version="1.1"
   inkscape:version="0.91 r13725"
   sodipodi:docname="Fire.svg">
  <defs
     id="defs3591" />
  <sodipodi:namedview
     id="base"
     pagecolor="#ffffff"
     bordercolor="#666666"
     borderopacity="1.0"
     inkscape:pageopacity="0.0"
     inkscape:pageshadow="2"
     inkscape:zoom="1.979899"
     inkscape:cx="146.20056"
     inkscape:cy="132.35735"
     inkscape:document-units="px"
     inkscape:current-layer="layer1"
     showgrid="false"
     units="px"
     inkscape:window-width="1366"
     inkscape:window-height="715"
     inkscape:window-x="-8"
     inkscape:window-y="-8"
     inkscape:window-maximized="1" />
  <metadata
     id="metadata3594">
    <rdf:RDF>
      <cc:Work
         rdf:about="">
        <dc:format>image/svg+xml</dc:format>
        <dc:type
           rdf:resource="http://purl.org/dc/dcmitype/StillImage" />
        <dc:title></dc:title>
      </cc:Work>
    </rdf:RDF>
  </metadata>
  <g
     inkscape:label="Layer 1"
     inkscape:groupmode="layer"
     id="layer1"
     transform="translate(0,-802.36216)">
    <g
       transform="matrix(1.1654404,0,0,1.1654404,-213.49062,156.60912)"
       id="#f1af36ff">
      <path
         id="path3431"
         d="m 277.02,563.02 c 10.03,-7.25 22.89,-9.52 35.04,-8.6 12.22,0.88 23.94,5.17 34.7,10.85 6.63,3.54 13.46,6.88 19.23,11.78 5.72,4.64 9.07,11.53 14.94,16.03 -16.13,-7.2 -32.11,-15.96 -49.93,-17.98 -11.13,-0.87 -22.37,0.23 -33.27,2.51 -9.01,2.13 -18.52,5.22 -24.81,12.39 -3.2,3.5 -4.41,8.23 -4.49,12.87 0.28,1.38 -1.02,1.78 -1.97,2.32 -3.8,-5.59 -5.02,-12.63 -3.44,-19.2 2.07,-8.81 6.36,-17.7 14,-22.97 z"
         inkscape:connector-curvature="0"
         style="opacity:1;fill:#f1af36" />
    </g>
    <g
       transform="matrix(1.1654404,0,0,1.1654404,-213.49062,156.60912)"
       id="#f09235ff">
      <path
         id="path3439"
         d="m 323.89,579.59 c 9.43,5.37 18.68,11.75 29.52,13.89 12.14,3.08 24.06,9.29 31.68,19.5 4.35,5.72 6.22,13.05 5.44,20.17 -13.58,-8.67 -29.87,-11.64 -43.58,-20.04 -4.79,-3.19 -10.21,-5.79 -13.72,-10.52 -1.93,-2.37 -2.59,-5.42 -3.79,-8.16 -1.39,-2.79 -3.96,-4.77 -5.38,-7.54 -1.16,-2.3 -0.42,-4.9 -0.17,-7.3 z"
         inkscape:connector-curvature="0"
         style="opacity:1;fill:#f09235" />
    </g>
    <g
       transform="matrix(1.1654404,0,0,1.1654404,-213.49062,156.60912)"
       id="#bf1e2eff">
      <path
         id="path3442"
         d="m 207.12,595.06 c 12.92,-10.46 31.1,-16.28 47.18,-10.01 -7.33,1.07 -14.87,3.6 -19.93,9.29 -6.69,7.29 -8.48,17.68 -7.86,27.25 11.95,-7.64 27.29,-11.46 40.92,-6.09 -7.97,1.02 -16.49,3.78 -21.19,10.77 -6.54,9.72 -5.43,22.38 -2.48,33.15 2.96,-5.04 6.02,-10.46 11.39,-13.28 5.62,-3.03 13.3,-3.34 18.61,0.41 -3.73,0.07 -7.7,0.73 -10.17,3.84 -6.95,8.27 -7.03,23.11 2.43,29.58 6.13,4.14 13.82,4.92 21.03,4.83 5,0.03 9.95,-1.4 14.97,-0.78 9,0.79 17.99,4.06 24.64,10.32 8.44,7.89 12.88,19.36 13.81,30.73 -0.06,12.06 -4.6,24.54 -13.89,32.54 -9.68,8.36 -22.92,11.76 -35.53,10.84 -22.75,-0.93 -45.33,-8.28 -63.77,-21.75 -24.19,-17.8 -39.68,-46.2 -43.55,-75.79 -2.32,-20.93 2.94,-42.14 12.36,-60.78 2.96,-5.49 5.6,-11.56 11.03,-15.07 z"
         inkscape:connector-curvature="0"
         style="opacity:1;fill:#bf1e2e" />
    </g>
    <g
       transform="matrix(1.1654404,0,0,1.1654404,-213.49062,156.60912)"
       id="#f06a35ff">
      <path
         id="path3454"
         d="m 307.39,591.59 c 1.66,2.01 3.06,4.21 4.5,6.38 5.73,8.2 14.28,13.99 23.41,17.83 12.93,5.5 26.8,8.82 39.03,15.92 8.89,4.95 17.43,11.88 21.13,21.68 3.15,8.17 1.91,17.12 1.4,25.64 -0.91,7.06 -1.44,15.07 -6.81,20.36 -3.23,-10.7 -5.23,-21.95 -10.81,-31.77 -4.1,-7.31 -10.47,-13.21 -17.89,-17.06 -14.02,-7.2 -30.19,-10.32 -42.77,-20.24 -7.12,-5.45 -11.71,-14.24 -11.27,-23.29 0.32,-5.15 -0.44,-10.31 0.08,-15.45 z"
         inkscape:connector-curvature="0"
         style="opacity:1;fill:#f06a35" />
    </g>
    <g
       transform="matrix(1.1654404,0,0,1.1654404,-213.49062,156.60912)"
       id="#ef4036ff">
      <path
         id="path3457"
         d="m 282.01,606.09 c 1.32,-4.08 3.78,-7.69 6.93,-10.56 -0.62,4.88 0.31,9.74 1.69,14.42 0.44,-4.35 1.53,-9.25 6.01,-11.13 1.27,13.13 4.33,27.63 14.77,36.67 16,9.86 35.55,12.79 50.59,24.45 10.13,7.32 16.31,19.07 18.45,31.21 2.84,16.01 -0.45,33.63 -10.94,46.35 -9.31,10.8 -22.13,17.71 -34.54,24.33 3.32,-3.66 7.18,-6.89 9.67,-11.22 8.12,-13.31 8.19,-30.24 3.25,-44.68 -3.52,-9.89 -9.24,-19.65 -18.04,-25.64 -12.29,-2.36 -24.81,-4.58 -36.27,-9.84 -3.18,-1.41 -6.04,-3.43 -8.65,-5.7 5.06,0.41 10.16,0.79 15.23,0.13 -7.51,-4.66 -14.38,-10.89 -17.84,-19.19 -5.36,-12.48 -4.66,-26.93 -0.31,-39.6 z"
         inkscape:connector-curvature="0"
         style="opacity:1;fill:#ef4036" />
    </g>
  </g>
</svg>
