<?xml version="1.0" encoding="UTF-8" standalone="no"?>
<!-- Created with Inkscape (http://www.inkscape.org/) -->

<svg
   xmlns:dc="http://purl.org/dc/elements/1.1/"
   xmlns:cc="http://creativecommons.org/ns#"
   xmlns:rdf="http://www.w3.org/1999/02/22-rdf-syntax-ns#"
   xmlns:svg="http://www.w3.org/2000/svg"
   xmlns="http://www.w3.org/2000/svg"
   xmlns:sodipodi="http://sodipodi.sourceforge.net/DTD/sodipodi-0.dtd"
   xmlns:inkscape="http://www.inkscape.org/namespaces/inkscape"
   width="250"
   height="250"
   viewBox="0 0 250 250"
   id="svg3589"
   version="1.1"
   inkscape:version="0.91 r13725"
   sodipodi:docname="Metal.svg">
  <defs
     id="defs3591" />
  <sodipodi:namedview
     id="base"
     pagecolor="#ffffff"
     bordercolor="#666666"
     borderopacity="1.0"
     inkscape:pageopacity="0.0"
     inkscape:pageshadow="2"
     inkscape:zoom="1.979899"
     inkscape:cx="146.20056"
     inkscape:cy="132.35735"
     inkscape:document-units="px"
     inkscape:current-layer="layer1"
     showgrid="false"
     units="px"
     inkscape:window-width="1366"
     inkscape:window-height="715"
     inkscape:window-x="-8"
     inkscape:window-y="-8"
     inkscape:window-maximized="1" />
  <metadata
     id="metadata3594">
    <rdf:RDF>
      <cc:Work
         rdf:about="">
        <dc:format>image/svg+xml</dc:format>
        <dc:type
           rdf:resource="http://purl.org/dc/dcmitype/StillImage" />
        <dc:title></dc:title>
      </cc:Work>
    </rdf:RDF>
  </metadata>
  <g
     inkscape:label="Layer 1"
     inkscape:groupmode="layer"
     id="layer1"
     transform="translate(0,-802.36216)">
    <g
       transform="matrix(1.162807,0,0,1.162807,-674.23395,647.29948)"
       id="#58585aff">
      <path
         id="path3815"
         d="m 637.61,147.04 c 17.75,-11.1 39.52,-14.9 60.15,-12.32 13.66,1.76 27.15,5.73 39.26,12.34 -33.13,0.09 -66.28,0.14 -99.41,-0.02 z"
         inkscape:connector-curvature="0"
         style="opacity:1;fill:#58585a" />
      <path
         id="path3817"
         d="m 742.35,149.19 c 18.06,4.33 32.79,19.62 36.02,37.96 -12.08,-12.58 -24.03,-25.29 -36.02,-37.96 z"
         inkscape:connector-curvature="0"
         style="opacity:1;fill:#58585a" />
      <path
         id="path3819"
         d="m 596.45,186.65 c 4.07,-18.02 18.63,-33.51 37.03,-36.97 -12.29,12.38 -24.67,24.66 -37.03,36.97 z"
         inkscape:connector-curvature="0"
         style="opacity:1;fill:#58585a" />
      <path
         id="path3821"
         d="m 650.14,176.84 c 24.64,-0.16 49.28,-0.02 73.93,-0.07 9.18,9.01 18.23,18.15 27.35,27.22 0.04,23.66 -0.03,47.32 0.04,70.98 0.05,1.52 -0.05,3.18 -1.42,4.13 -8.7,8.58 -17.27,17.29 -26,25.84 -24.6,-0.07 -49.21,0.01 -73.81,-0.04 -9.08,-9.03 -18.11,-18.1 -27.2,-27.1 -0.12,-24.62 -0.07,-49.24 -0.02,-73.86 9.02,-9.05 18.11,-18.04 27.13,-27.1 m 30.19,37.62 c -12.3,3.17 -20.9,15.95 -19.66,28.52 0.68,11.8 9.88,22.59 21.59,24.68 9.73,1.99 20.25,-2.24 26.07,-10.25 6.25,-8.21 7.2,-19.99 2.48,-29.16 -5.29,-10.99 -18.69,-17.26 -30.48,-13.79 z"
         inkscape:connector-curvature="0"
         style="opacity:1;fill:#58585a" />
      <path
         id="path3823"
         d="m 781.94,292.16 c -0.03,-34.15 -0.11,-68.29 0.04,-102.44 9.62,16.64 13.76,36.2 12.59,55.33 -1,16.33 -5.25,32.5 -12.63,47.11 z"
         inkscape:connector-curvature="0"
         style="opacity:1;fill:#58585a" />
      <path
         id="path3825"
         d="m 580.46,241.04 c 0.38,-17.82 4.75,-35.58 12.79,-51.5 0.06,34.19 0.05,68.38 0,102.56 -8.83,-15.43 -13.18,-33.3 -12.79,-51.06 z"
         inkscape:connector-curvature="0"
         style="opacity:1;fill:#58585a" />
      <path
         id="path3827"
         d="m 672.39,227.79 c 0.75,-0.76 1.52,-1.51 2.29,-2.26 4.31,2.64 8.61,5.32 13.08,7.69 4.38,-2.61 8.66,-5.4 13.22,-7.68 0.44,0.58 1.31,1.74 1.74,2.32 -2.48,4.42 -4.98,8.82 -7.43,13.26 2.41,4.55 5.16,8.92 7.45,13.55 -0.48,0.5 -1.43,1.5 -1.91,2 -4.5,-2.37 -8.78,-5.11 -13.16,-7.67 -4.63,2.45 -8.88,5.56 -13.66,7.72 -0.3,-0.66 -0.91,-1.97 -1.21,-2.63 2.06,-4.49 4.87,-8.6 7.1,-13.02 -2.49,-4.44 -4.96,-8.88 -7.51,-13.28 z"
         inkscape:connector-curvature="0"
         style="opacity:1;fill:#58585a" />
      <path
         id="path3829"
         d="m 596.92,294.34 c 12.07,12.6 24.05,25.29 36.01,37.99 -18.06,-4.34 -32.75,-19.65 -36.01,-37.99 z"
         inkscape:connector-curvature="0"
         style="opacity:1;fill:#58585a" />
      <path
         id="path3831"
         d="m 741.83,331.87 c 12.26,-12.4 24.64,-24.7 37.04,-36.97 -4.11,18.02 -18.65,33.46 -37.04,36.97 z"
         inkscape:connector-curvature="0"
         style="opacity:1;fill:#58585a" />
      <path
         id="path3833"
         d="m 637.11,335.13 c 33.37,-0.07 66.74,-0.04 100.11,-0.02 -13.33,8 -28.69,12.58 -44.24,13.1 -19.34,0.66 -38.77,-4.08 -55.87,-13.08 z"
         inkscape:connector-curvature="0"
         style="opacity:1;fill:#58585a" />
    </g>
    <g
       transform="matrix(1.162807,0,0,1.162807,-674.23395,647.29948)"
       id="#a7a9acff">
      <path
         id="path3836"
         d="m 637.2,154.16 c 33.29,-0.03 66.58,0.04 99.87,-0.04 12.44,12.19 24.7,24.57 37.04,36.87 0,33.25 0.06,66.51 -0.03,99.76 -12.29,12.23 -24.57,24.46 -36.81,36.73 -33.31,0.13 -66.61,-0.02 -99.92,0.08 -12.48,-12.16 -24.72,-24.58 -37.08,-36.86 -0.07,-33.2 0.02,-66.4 -0.05,-99.6 12.24,-12.4 24.65,-24.63 36.98,-36.94 m 12.94,22.68 c -9.02,9.06 -18.11,18.05 -27.13,27.1 -0.05,24.62 -0.1,49.24 0.02,73.86 9.09,9 18.12,18.07 27.2,27.1 24.6,0.05 49.21,-0.03 73.81,0.04 8.73,-8.55 17.3,-17.26 26,-25.84 1.37,-0.95 1.47,-2.61 1.42,-4.13 -0.07,-23.66 0,-47.32 -0.04,-70.98 -9.12,-9.07 -18.17,-18.21 -27.35,-27.22 -24.65,0.05 -49.29,-0.09 -73.93,0.07 z"
         inkscape:connector-curvature="0"
         style="opacity:1;fill:#a7a9ac" />
      <path
         id="path3838"
         d="m 680.33,214.46 c 11.79,-3.47 25.19,2.8 30.48,13.79 4.72,9.17 3.77,20.95 -2.48,29.16 -5.82,8.01 -16.34,12.24 -26.07,10.25 -11.71,-2.09 -20.91,-12.88 -21.59,-24.68 -1.24,-12.57 7.36,-25.35 19.66,-28.52 m -7.94,13.33 c 2.55,4.4 5.02,8.84 7.51,13.28 -2.23,4.42 -5.04,8.53 -7.1,13.02 0.3,0.66 0.91,1.97 1.21,2.63 4.78,-2.16 9.03,-5.27 13.66,-7.72 4.38,2.56 8.66,5.3 13.16,7.67 0.48,-0.5 1.43,-1.5 1.91,-2 -2.29,-4.63 -5.04,-9 -7.45,-13.55 2.45,-4.44 4.95,-8.84 7.43,-13.26 -0.43,-0.58 -1.3,-1.74 -1.74,-2.32 -4.56,2.28 -8.84,5.07 -13.22,7.68 -4.47,-2.37 -8.77,-5.05 -13.08,-7.69 -0.77,0.75 -1.54,1.5 -2.29,2.26 z"
         inkscape:connector-curvature="0"
         style="opacity:1;fill:#a7a9ac" />
    </g>
  </g>
</svg>
