<?xml version="1.0" encoding="UTF-8" standalone="no"?>
<!-- Created with Inkscape (http://www.inkscape.org/) -->

<svg
   xmlns:dc="http://purl.org/dc/elements/1.1/"
   xmlns:cc="http://creativecommons.org/ns#"
   xmlns:rdf="http://www.w3.org/1999/02/22-rdf-syntax-ns#"
   xmlns:svg="http://www.w3.org/2000/svg"
   xmlns="http://www.w3.org/2000/svg"
   xmlns:sodipodi="http://sodipodi.sourceforge.net/DTD/sodipodi-0.dtd"
   xmlns:inkscape="http://www.inkscape.org/namespaces/inkscape"
   width="250"
   height="250"
   viewBox="0 0 250 250"
   id="svg3589"
   version="1.1"
   inkscape:version="0.91 r13725"
   sodipodi:docname="Soil.svg">
  <defs
     id="defs3591" />
  <sodipodi:namedview
     id="base"
     pagecolor="#ffffff"
     bordercolor="#666666"
     borderopacity="1.0"
     inkscape:pageopacity="0.0"
     inkscape:pageshadow="2"
     inkscape:zoom="1.979899"
     inkscape:cx="146.20056"
     inkscape:cy="132.35735"
     inkscape:document-units="px"
     inkscape:current-layer="layer1"
     showgrid="false"
     units="px"
     inkscape:window-width="1366"
     inkscape:window-height="715"
     inkscape:window-x="-8"
     inkscape:window-y="-8"
     inkscape:window-maximized="1" />
  <metadata
     id="metadata3594">
    <rdf:RDF>
      <cc:Work
         rdf:about="">
        <dc:format>image/svg+xml</dc:format>
        <dc:type
           rdf:resource="http://purl.org/dc/dcmitype/StillImage" />
        <dc:title></dc:title>
      </cc:Work>
    </rdf:RDF>
  </metadata>
  <g
     inkscape:label="Layer 1"
     inkscape:groupmode="layer"
     id="layer1"
     transform="translate(0,-802.36216)">
    <g
       transform="matrix(1.162993,0,0,1.162993,-679.75181,158.40757)"
       id="#8b5e3bff">
      <path
         id="path3434"
         d="m 681.53,554.74 c 22.09,-2.24 44.85,2.55 64.07,13.68 28.23,16.05 48.35,45.53 52.71,77.73 4.9,32.6 -6.41,67.07 -29.69,90.4 -22.66,23.35 -56.36,35.24 -88.66,31.3 -34.8,-3.68 -66.82,-25.84 -82.79,-56.93 -16.92,-31.86 -16.01,-72.29 2.35,-103.35 16.84,-29.35 48.27,-49.75 82.01,-52.83 m -25.63,17.95 c -4.69,12.72 -9.01,25.61 -13.9,38.25 -12.59,5.18 -25.66,9.31 -38.43,14.1 -0.01,24.23 -0.02,48.46 0,72.7 11.94,4.25 23.83,8.6 35.78,12.82 1.32,0.47 2.95,0.89 3.23,2.53 4.47,12.31 8.85,24.66 13.32,36.97 24.24,-0.04 48.48,0.08 72.72,-0.06 4.54,-12.84 9.2,-25.64 13.8,-38.45 12.83,-4.58 25.64,-9.24 38.48,-13.81 0.02,-24.23 0,-48.46 0.01,-72.69 -12.8,-4.57 -25.56,-9.27 -38.39,-13.75 -4.78,-12.81 -9.29,-25.73 -13.95,-38.59 -24.22,-0.05 -48.44,-0.01 -72.67,-0.02 z"
         inkscape:connector-curvature="0"
         style="opacity:1;fill:#8b5e3b" />
      <path
         id="path3436"
         d="m 686.48,634.65 c 13.68,-3.29 28.67,5.85 32.11,19.46 3.75,12.59 -3.14,27.11 -15.21,32.24 -9.08,4.14 -20.38,2.75 -28.14,-3.54 -7.71,-6 -11.69,-16.33 -9.97,-25.95 1.65,-10.83 10.49,-20.04 21.21,-22.21 z"
         inkscape:connector-curvature="0"
         style="opacity:1;fill:#8b5e3b" />
    </g>
    <g
       transform="matrix(1.162993,0,0,1.162993,-679.75181,158.40757)"
       id="#056839ff">
      <path
         id="path3445"
         d="m 666.51,582.98 c 17.14,-0.02 34.29,-0.01 51.44,-0.01 3.26,12.64 6.55,25.27 9.79,37.91 -23.67,-0.03 -47.35,-0.01 -71.02,-0.01 3.23,-12.64 6.53,-25.26 9.79,-37.89 z"
         inkscape:connector-curvature="0"
         style="opacity:1;fill:#056839" />
      <path
         id="path3447"
         d="m 613.84,635.65 c 12.63,-3.25 25.25,-6.53 37.88,-9.78 0,23.67 -0.01,47.35 0,71.03 -12.64,-3.26 -25.27,-6.54 -37.91,-9.79 0.04,-17.16 0.02,-34.31 0.03,-51.46 z"
         inkscape:connector-curvature="0"
         style="opacity:1;fill:#056839" />
      <path
         id="path3449"
         d="m 732.72,625.86 c 12.63,3.26 25.26,6.54 37.89,9.79 0.04,17.14 -0.03,34.28 0.04,51.42 -12.64,3.32 -25.29,6.58 -37.95,9.8 0.03,-23.67 0,-47.34 0.02,-71.01 z"
         inkscape:connector-curvature="0"
         style="opacity:1;fill:#056839" />
      <path
         id="path3451"
         d="m 656.71,701.88 c 23.68,-0.01 47.36,-0.01 71.04,0 -3.26,12.64 -6.53,25.27 -9.8,37.91 -17.15,-0.01 -34.3,0.01 -51.45,-0.01 -3.26,-12.64 -6.54,-25.27 -9.79,-37.9 z"
         inkscape:connector-curvature="0"
         style="opacity:1;fill:#056839" />
    </g>
  </g>
</svg>
