<?xml version="1.0" encoding="UTF-8" standalone="no"?>
<!-- Created with Inkscape (http://www.inkscape.org/) -->

<svg
   xmlns:dc="http://purl.org/dc/elements/1.1/"
   xmlns:cc="http://creativecommons.org/ns#"
   xmlns:rdf="http://www.w3.org/1999/02/22-rdf-syntax-ns#"
   xmlns:svg="http://www.w3.org/2000/svg"
   xmlns="http://www.w3.org/2000/svg"
   xmlns:sodipodi="http://sodipodi.sourceforge.net/DTD/sodipodi-0.dtd"
   xmlns:inkscape="http://www.inkscape.org/namespaces/inkscape"
   width="250"
   height="250"
   viewBox="0 0 250 250"
   id="svg3589"
   version="1.1"
   inkscape:version="0.91 r13725"
   sodipodi:docname="Water.svg">
  <defs
     id="defs3591" />
  <sodipodi:namedview
     id="base"
     pagecolor="#ffffff"
     bordercolor="#666666"
     borderopacity="1.0"
     inkscape:pageopacity="0.0"
     inkscape:pageshadow="2"
     inkscape:zoom="1.979899"
     inkscape:cx="146.20056"
     inkscape:cy="111.67548"
     inkscape:document-units="px"
     inkscape:current-layer="layer1"
     showgrid="false"
     units="px"
     inkscape:window-width="1366"
     inkscape:window-height="715"
     inkscape:window-x="-8"
     inkscape:window-y="-8"
     inkscape:window-maximized="1" />
  <metadata
     id="metadata3594">
    <rdf:RDF>
      <cc:Work
         rdf:about="">
        <dc:format>image/svg+xml</dc:format>
        <dc:type
           rdf:resource="http://purl.org/dc/dcmitype/StillImage" />
        <dc:title></dc:title>
      </cc:Work>
    </rdf:RDF>
  </metadata>
  <g
     inkscape:label="Layer 1"
     inkscape:groupmode="layer"
     id="layer1"
     transform="translate(0,-802.36216)">
    <g
       transform="matrix(1.1655841,0,0,1.1655841,-681.33776,645.85173)"
       id="#00aeefff">
      <path
         id="path3376"
         d="m 614.79,167.98 c 23.05,-24.6 58.84,-38.63 92.33,-31.17 16.07,3.57 31.34,10.75 44.34,20.85 8.39,6.6 15.9,14.55 21.02,23.99 1.32,2.46 2.87,4.78 4.49,7.06 -12.39,-3.21 -25.14,-7.9 -38.1,-5.28 -8.01,1.73 -16.54,5.09 -21.14,12.29 -4.39,7.21 -3.15,16.03 -2.02,23.97 -11.04,-14.04 -18.89,-31.08 -33.72,-41.76 -10.3,-7.23 -22.58,-11.25 -34.89,-13.4 -10.81,-1.8 -22.3,-1.37 -32.31,3.45 z"
         inkscape:connector-curvature="0"
         style="opacity:1;fill:#00aeef" />
    </g>
    <g
       transform="matrix(1.1655841,0,0,1.1655841,-681.33776,645.85173)"
       id="#25aae1ff">
      <path
         id="path3384"
         d="m 622.92,175.04 c 12.31,-2 24.97,-0.65 36.99,2.43 10.19,2.6 20.43,7.01 27.5,15.07 3.17,3.84 5.95,8.4 6.47,13.45 0.26,2.23 -2.21,2.74 -3.87,2.11 -7.53,-2.13 -13.54,-7.52 -20.76,-10.35 -23.36,-9.62 -51.24,-9.29 -73.59,2.93 -2.25,0.98 -4.76,1.07 -7.15,1.42 -0.07,-6.39 3.51,-12.21 8.62,-15.85 7.65,-5.5 16.4,-9.76 25.79,-11.21 z"
         inkscape:connector-curvature="0"
         style="opacity:1;fill:#25aae1" />
    </g>
    <g
       transform="matrix(1.1655841,0,0,1.1655841,-681.33776,645.85173)"
       id="#0e76bcff">
      <path
         id="path3387"
         d="m 741.46,192.59 c 10.56,-1.37 21.82,-1.93 31.95,1.9 10.75,4.23 18.49,13.95 22.33,24.62 5.58,15.41 4.8,32.91 -1.75,47.9 -4.98,12 -13.59,22.84 -25.27,28.86 -13.37,7.02 -29.3,7.32 -43.76,4.01 -19.92,-4.62 -37.5,-16.72 -50.89,-31.93 -10.66,-12.36 -19.54,-26.36 -31.98,-37.09 -6.8,-5.87 -15.02,-10.77 -24.17,-11.37 -7.85,-0.5 -15.3,2.58 -22.93,3.69 -5.63,0.58 -8.02,-6.27 -6.44,-10.72 1.82,-5.12 6.75,-8.19 11.35,-10.54 7.23,-3.39 15.05,-5.7 23.02,-6.42 15.36,-0.69 31.27,0.58 45.46,6.96 7.82,3.57 15.02,8.32 22.17,13.06 11.5,7.72 18,20.64 28.96,28.96 7.99,6.17 18.94,7.72 28.59,5.29 4.84,-1.31 9.93,-4.19 11.56,-9.24 1.74,-5.78 0,-12.13 -3.3,-17.01 -2.36,-3.41 -6.08,-6.48 -10.44,-6.34 -5.35,0.44 -8.82,5.51 -14.04,6.37 -4.05,0.69 -8.31,-1.82 -9.74,-5.64 -2.22,-5.78 -0.32,-12.48 3.57,-17.09 3.91,-4.71 9.86,-7.15 15.75,-8.23 z"
         inkscape:connector-curvature="0"
         style="opacity:1;fill:#0e76bc" />
    </g>
    <g
       transform="matrix(1.1655841,0,0,1.1655841,-681.33776,645.85173)"
       id="#1b669bff">
      <path
         id="path3390"
         d="m 590.23,229.17 c 11.82,-4.19 25.59,-4.54 36.8,1.66 12.44,6.82 21.1,18.51 29.35,29.71 12.31,16.8 26.61,33.27 45.85,42.22 13.28,6.36 28.29,7.01 42.74,7.41 6.51,-0.13 13.19,0.41 19.51,-1.52 5.18,-1.6 9.86,-4.4 14.77,-6.65 -1.55,3.86 -4,7.36 -7.37,9.84 -8.37,6.34 -18.69,9.36 -28.8,11.57 -13.82,2.67 -28.34,4.25 -42.1,0.44 -20.43,-5.11 -38.07,-18.6 -50.22,-35.58 -7.15,-9.56 -11.46,-20.86 -18.66,-30.38 -5.42,-7.09 -10.78,-14.69 -18.64,-19.27 -7.2,-4.38 -15.53,-6.21 -23.23,-9.45 z"
         inkscape:connector-curvature="0"
         style="opacity:1;fill:#1b669b" />
    </g>
    <g
       transform="matrix(1.1655841,0,0,1.1655841,-681.33776,645.85173)"
       id="#17567aff">
      <path
         id="path3393"
         d="m 585.07,240.85 c 9.41,-1.5 19.08,1.71 26.2,7.92 12.88,10.95 20.51,26.37 29.98,40.06 9.91,14.15 21.5,28.03 37.36,35.67 12.02,5.68 25.12,8.69 38.18,10.79 10.34,2.21 20.34,-3.13 30.72,-1.98 -4.88,7.13 -13.02,11.11 -21.26,12.89 -10.26,2.33 -20.83,2.38 -31.28,2.78 -13.35,0.32 -27.06,0.18 -39.82,-4.2 -12.32,-4.59 -23.21,-12.39 -32.71,-21.37 -13.91,-13.3 -25.12,-29.99 -29.7,-48.85 -2.69,-11.21 -4.51,-22.62 -7.67,-33.71 z"
         inkscape:connector-curvature="0"
         style="opacity:1;fill:#17567a" />
    </g>
  </g>
</svg>
