<?xml version="1.0" encoding="UTF-8" standalone="no"?>
<!-- Created with Inkscape (http://www.inkscape.org/) -->

<svg
   xmlns:dc="http://purl.org/dc/elements/1.1/"
   xmlns:cc="http://creativecommons.org/ns#"
   xmlns:rdf="http://www.w3.org/1999/02/22-rdf-syntax-ns#"
   xmlns:svg="http://www.w3.org/2000/svg"
   xmlns="http://www.w3.org/2000/svg"
   xmlns:sodipodi="http://sodipodi.sourceforge.net/DTD/sodipodi-0.dtd"
   xmlns:inkscape="http://www.inkscape.org/namespaces/inkscape"
   width="250"
   height="250"
   viewBox="0 0 250 250"
   id="svg3589"
   version="1.1"
   inkscape:version="0.91 r13725"
   sodipodi:docname="Wood.svg">
  <defs
     id="defs3591" />
  <sodipodi:namedview
     id="base"
     pagecolor="#ffffff"
     bordercolor="#666666"
     borderopacity="1.0"
     inkscape:pageopacity="0.0"
     inkscape:pageshadow="2"
     inkscape:zoom="1.979899"
     inkscape:cx="146.20056"
     inkscape:cy="132.35735"
     inkscape:document-units="px"
     inkscape:current-layer="layer1"
     showgrid="false"
     units="px"
     inkscape:window-width="1366"
     inkscape:window-height="715"
     inkscape:window-x="-8"
     inkscape:window-y="-8"
     inkscape:window-maximized="1" />
  <metadata
     id="metadata3594">
    <rdf:RDF>
      <cc:Work
         rdf:about="">
        <dc:format>image/svg+xml</dc:format>
        <dc:type
           rdf:resource="http://purl.org/dc/dcmitype/StillImage" />
        <dc:title></dc:title>
      </cc:Work>
    </rdf:RDF>
  </metadata>
  <g
     inkscape:label="Layer 1"
     inkscape:groupmode="layer"
     id="layer1"
     transform="translate(0,-802.36216)">
    <path
       id="path3812"
       d="m 87.241394,808.56298 c 8.633846,-2.66822 17.547336,-4.3111 26.519076,-5.35975 2.00408,19.09701 4.56744,38.14741 6.29188,57.26771 1.65453,-19.20187 0.43111,-38.5086 -0.22138,-57.73377 3.64696,0 7.29391,0 10.94087,0 -0.76901,19.15526 -1.66618,38.38043 -0.43111,57.5357 2.20216,-19.01545 4.3344,-38.03089 6.46665,-57.05798 8.9834,1.02534 17.88523,2.67987 26.53073,5.34809 0.93213,5.0568 2.79639,9.86892 4.80047,14.58783 2.85465,-2.98282 5.33644,-6.29188 7.79493,-9.58929 3.25081,0.97874 6.14041,2.8197 9.18148,4.27615 -3.84503,5.48791 -7.87649,10.82435 -12.11768,15.99767 0.96708,1.99243 1.93417,3.9732 2.9129,5.96563 6.89776,-5.48791 14.15672,-10.85931 22.59249,-13.71396 5.27818,4.35771 10.46316,8.82028 15.53161,13.43432 -4.95194,2.22546 -9.74075,4.81212 -14.28489,7.77163 2.22546,1.0836 4.46257,2.13225 6.73464,3.13429 3.79843,-2.40024 7.78328,-4.52083 11.90796,-6.31518 1.31663,1.54967 2.63326,3.09933 3.94989,4.649 -2.20215,1.68948 -4.40431,3.39062 -6.59481,5.10341 4.19458,1.4448 8.52898,2.40023 12.75852,3.70521 1.4215,0.94378 2.05069,2.74978 3.08768,4.08972 -7.85319,0.24468 -15.71803,-0.30294 -23.47801,-1.56132 -4.80047,4.14798 -9.56598,8.42412 -13.36441,13.55083 14.08681,-2.02738 28.37169,-2.60996 42.57502,-1.67783 2.43518,5.96563 4.83542,11.95456 7.25896,17.93184 -21.64871,-1.32828 -44.42763,-0.58258 -64.29364,9.06496 -7.41043,3.78678 -14.72765,8.97175 -18.26974,16.76668 -9.58928,19.55142 -10.99913,41.93418 -10.05535,63.34986 1.23507,22.86047 5.3714,45.52287 11.68658,67.50947 -12.25751,4.4393 -25.42383,5.6161 -38.35713,5.8841 -12.94495,-0.2563 -26.099629,-1.4564 -38.357128,-5.8841 7.224,-25.3539 11.779783,-51.60498 11.942906,-78.00758 -0.104865,-19.36499 -2.505098,-39.5922 -12.432274,-56.60357 -8.20274,-11.20886 -21.998258,-16.48704 -35.071374,-19.56307 -14.867466,-3.28575 -30.235952,-3.50713 -45.3830572,-2.51675 2.411885,-5.98893 4.8354222,-11.96621 7.2706102,-17.94349 14.203324,-0.90883 28.488209,-0.3379 42.575017,1.68948 -3.81008,-5.11506 -8.56394,-9.40285 -13.376059,-13.55083 -7.759978,1.24672 -15.636473,1.79435 -23.501316,1.57297 1.048646,-1.30498 1.65453,-3.14594 3.076028,-4.08972 4.229537,-1.32828 8.56394,-2.27206 12.781826,-3.68191 -2.178853,-1.74774 -4.381009,-3.44888 -6.594816,-5.12671 1.328284,-1.56132 2.644917,-3.11098 3.973202,-4.66065 4.113021,1.79435 8.086223,3.91494 11.873,6.31518 2.272065,-1.01369 4.53248,-2.05069 6.781242,-3.13429 -4.567435,-2.95951 -9.367902,-5.53452 -14.308188,-7.78328 5.243228,-4.59074 10.288379,-9.43781 15.986021,-13.48092 8.097875,3.30906 15.380137,8.26099 22.149728,13.76056 0.967085,-1.99243 1.934169,-3.9732 2.889602,-5.96563 -4.24119,-5.17332 -8.27265,-10.52141 -12.106033,-16.00932 3.01777,-1.52637 6.058842,-3.00612 9.123218,-4.46257 2.330324,3.48383 4.998545,6.72298 7.853192,9.79901 1.992427,-4.71891 3.879989,-9.51938 4.800467,-14.58783 m 6.827845,26.14623 c 2.842995,2.78474 5.662687,5.60443 8.575591,8.33091 -0.3845,-8.6222 -2.28372,-17.08127 -3.798427,-25.552 -1.433149,5.7792 -2.994466,11.5351 -4.777164,17.22109 M 151.7331,817.48812 c -1.52636,8.47073 -3.33236,16.9298 -3.77512,25.552 2.92455,-2.71483 5.74424,-5.54617 8.58724,-8.34256 -1.81765,-5.67434 -3.35567,-11.43024 -4.81212,-17.20944 m -62.347808,29.29217 c -0.86222,1.40985 -1.712788,2.843 -2.563356,4.26449 3.984853,4.20624 7.748323,8.61055 11.674918,12.87504 2.143896,-1.92251 3.227496,-4.57908 3.879986,-7.31721 -4.84707,-2.55171 -9.006694,-6.12876 -12.991548,-9.82232 m 58.829018,9.81066 c 0.64084,2.74979 1.70114,5.42966 3.84503,7.36383 3.97321,-4.25284 7.73668,-8.68046 11.73319,-12.91 -0.86222,-1.42149 -1.72444,-2.84299 -2.58666,-4.25284 -3.97321,3.70522 -8.15614,7.25896 -12.99156,9.79901 m -94.704354,0.78066 c 7.060881,5.83746 13.143026,12.70027 19.003791,19.71454 5.184971,2.29537 10.696187,3.87999 15.752989,6.51326 -7.736675,-10.95252 -17.325958,-20.5185 -27.55608,-29.1174 -2.400233,0.95543 -4.800467,1.92252 -7.2007,2.8896 m 136.358894,-2.90125 c -10.26508,8.59889 -19.7728,18.22313 -27.54443,29.15235 4.57909,-2.21381 9.298,-4.12467 14.12177,-5.74425 1.8526,-0.39615 2.79638,-2.10894 3.96155,-3.41392 4.99854,-6.22197 10.60297,-11.93126 16.66181,-17.11623 -2.40023,-0.95543 -4.80047,-1.92252 -7.2007,-2.87795 z"
       inkscape:connector-curvature="0"
       style="opacity:1;fill:#603813" />
    <g
       transform="matrix(1.1651619,0,0,1.1651619,-209.14085,647.03658)"
       id="#056839ff">
      <path
         id="path3841"
         d="m 192.3,217.25 c 2.68,-1.71 7.09,-1 8.4,2.11 3.14,6.4 4.23,13.72 8.29,19.68 4.37,6.61 8.09,13.69 13.3,19.7 6.78,7.83 14.79,14.62 20.57,23.28 4.2,6.23 6.83,13.51 7.44,21.01 0.37,5.33 -0.38,10.65 -1.04,15.93 -0.76,7.21 -5.29,13.21 -7.29,20.06 -11.94,-13.1 -22.71,-27.39 -31.14,-43.02 -4.18,-8.02 -8.01,-16.39 -9.63,-25.34 0.2,5.27 1.43,10.41 2.52,15.55 2.84,12.56 6.52,25.11 12.93,36.37 -21.51,-18.63 -35.1,-46.08 -36.61,-74.53 -1.02,-7.07 2.01,-13.77 4.52,-20.2 1.83,-3.96 3.91,-8.21 7.74,-10.6 z"
         inkscape:connector-curvature="0"
         style="opacity:1;fill:#056839" />
      <path
         id="path3843"
         d="m 373.37,219.31 c 1.49,-3.33 6.35,-3.81 9.03,-1.66 4.32,3.29 6.43,8.55 8.41,13.43 1.35,3.9 2.93,7.8 3.35,11.94 -0.08,30.2 -14,59.84 -36.78,79.6 8.75,-15.87 13.13,-33.83 15.6,-51.66 -3.04,13.1 -9.31,25.2 -16.48,36.49 -7.21,11.2 -15.41,21.76 -24.43,31.56 -2.04,-6.88 -6.56,-12.93 -7.31,-20.2 -0.74,-6.25 -1.71,-12.62 -0.64,-18.89 1.03,-6.59 3.61,-12.9 7.39,-18.38 5.76,-8.42 13.58,-15.11 20.24,-22.78 5.21,-6.02 8.93,-13.1 13.31,-19.71 4.06,-5.98 5.15,-13.33 8.31,-19.74 z"
         inkscape:connector-curvature="0"
         style="opacity:1;fill:#056839" />
    </g>
  </g>
</svg>
